<svg xmlns="http://www.w3.org/2000/svg" xmlns:xlink="http://www.w3.org/1999/xlink" width="487" zoomAndPan="magnify" viewBox="0 0 365.25 125.999998" height="168" preserveAspectRatio="xMidYMid meet" version="1.0"><defs><g/></defs><g fill="#000000" fill-opacity="1"><g transform="translate(0, 74.99357)"><g><path d="M 0 0 L 13.097656 0 C 21.308594 0 29.621094 -2.667969 29.621094 -17.429688 C 29.621094 -32.238281 21.207031 -34.457031 13.097656 -34.457031 L 0 -34.457031 L 0 -34 C 2.167969 -34.101562 3.222656 -32.640625 3.222656 -27.300781 L 3.222656 -7.101562 C 3.222656 -1.761719 2.167969 -0.351562 0 -0.453125 Z M 8.007812 -33.546875 L 14.507812 -33.546875 C 21.308594 -33.546875 24.832031 -26.949219 24.832031 -17.429688 C 24.832031 -7.910156 21.457031 -0.90625 14.507812 -0.90625 L 8.007812 -0.90625 Z M 8.007812 -33.546875 "/></g></g></g><g fill="#000000" fill-opacity="1"><g transform="translate(31.180926, 74.99357)"><g><path d="M 28.664062 -2.066406 L 28.308594 -2.367188 C 27.101562 -1.359375 25.691406 -2.46875 25.085938 -3.425781 C 22.917969 -6.648438 22.414062 -12.492188 21.308594 -17.628906 C 19.949219 -24.28125 18.132812 -27.351562 10.679688 -27.351562 C 6.800781 -27.351562 3.023438 -26.496094 0.0507812 -25.085938 L 1.664062 -20.855469 C 2.769531 -22.367188 5.136719 -24.734375 7.503906 -25.789062 C 11.285156 -27.503906 14.660156 -25.289062 12.492188 -21.054688 C 10.023438 -16.070312 0.453125 -14.660156 0 -7.152344 C -0.25 -2.46875 3.125 0 7.503906 0 C 14.660156 0 17.226562 -5.640625 17.679688 -11.636719 C 18.082031 -9.269531 18.585938 -6.953125 19.292969 -4.988281 C 20.300781 -2.265625 21.761719 0 25.035156 0 C 26.496094 0 27.90625 -0.605469 28.664062 -2.066406 Z M 16.371094 -19.039062 C 17.175781 -15.714844 17.027344 -11.082031 15.867188 -7.808594 C 14.757812 -4.632812 11.636719 -1.613281 7.910156 -2.519531 C 5.039062 -3.222656 4.230469 -5.84375 4.734375 -8.3125 C 5.792969 -13.148438 11.234375 -14.910156 13.398438 -18.789062 C 14.207031 -20.199219 14.660156 -22.214844 14.253906 -23.875 C 15.261719 -22.566406 15.917969 -20.855469 16.371094 -19.039062 Z M 16.371094 -19.039062 "/></g></g></g><g fill="#000000" fill-opacity="1"><g transform="translate(61.001776, 74.99357)"><g><path d="M 17.78125 -35.867188 C 16.269531 -36.773438 14.207031 -37.78125 11.234375 -37.78125 C 6.246094 -37.78125 3.222656 -34.304688 3.222656 -28.863281 L 3.222656 -27.351562 L 0 -27.351562 L 0 -26.445312 L 3.222656 -26.445312 L 3.222656 -7.101562 C 3.222656 -1.761719 2.167969 -0.351562 0 -0.453125 L 0 0 L 10.980469 0 L 10.980469 -0.453125 C 8.816406 -0.351562 7.757812 -1.761719 7.757812 -7.101562 L 7.757812 -26.445312 L 14.054688 -26.445312 L 14.054688 -27.351562 L 7.757812 -27.351562 L 7.757812 -31.785156 C 7.757812 -33.449219 8.007812 -36.773438 10.277344 -36.871094 C 12.59375 -36.921875 15.210938 -33.144531 16.167969 -31.632812 Z M 17.78125 -35.867188 "/></g></g></g><g fill="#000000" fill-opacity="1"><g transform="translate(76.768539, 74.99357)"><g><path d="M 17.78125 -35.867188 C 16.269531 -36.773438 14.207031 -37.78125 11.234375 -37.78125 C 6.246094 -37.78125 3.222656 -34.304688 3.222656 -28.863281 L 3.222656 -27.351562 L 0 -27.351562 L 0 -26.445312 L 3.222656 -26.445312 L 3.222656 -7.101562 C 3.222656 -1.761719 2.167969 -0.351562 0 -0.453125 L 0 0 L 10.980469 0 L 10.980469 -0.453125 C 8.816406 -0.351562 7.757812 -1.761719 7.757812 -7.101562 L 7.757812 -26.445312 L 14.054688 -26.445312 L 14.054688 -27.351562 L 7.757812 -27.351562 L 7.757812 -31.785156 C 7.757812 -33.449219 8.007812 -36.773438 10.277344 -36.871094 C 12.59375 -36.921875 15.210938 -33.144531 16.167969 -31.632812 Z M 17.78125 -35.867188 "/></g></g></g><g fill="#000000" fill-opacity="1"><g transform="translate(92.535302, 74.99357)"><g><path d="M 7.910156 -24.53125 C 7.304688 -26.246094 8.210938 -27 9.921875 -26.898438 L 9.921875 -27.351562 L 0 -27.351562 L 0 -26.898438 C 1.710938 -27 2.570312 -26.09375 3.125 -24.53125 L 10.980469 -2.066406 C 11.535156 -0.605469 12.140625 0 13.75 0 L 14.457031 0 L 13.199219 3.578125 C 12.542969 5.441406 11.484375 7 10.175781 8.007812 C 6.042969 11.183594 2.871094 7.304688 0.453125 3.980469 L -1.160156 8.210938 C 0.65625 9.671875 3.074219 10.425781 5.441406 10.425781 C 9.773438 10.425781 12.644531 7.808594 14.054688 3.878906 L 24.027344 -24.683594 C 24.53125 -26.195312 25.539062 -27 27.101562 -26.898438 L 27.101562 -27.351562 C 24.734375 -27.351562 21.105469 -27.351562 18.6875 -27.351562 L 18.6875 -26.898438 C 20.25 -27 21.15625 -26.597656 21.660156 -25.136719 C 21.761719 -24.785156 21.914062 -24.429688 22.0625 -24.027344 C 22.316406 -23.222656 22.265625 -22.414062 22.011719 -21.609375 L 15.464844 -2.972656 Z M 7.910156 -24.53125 "/></g></g></g><g fill="#000000" fill-opacity="1"><g transform="translate(120.895333, 74.99357)"><g/></g></g><g fill="#000000" fill-opacity="1"><g transform="translate(135.65464, 74.99357)"><g><path d="M 30.675781 -7.101562 C 30.675781 -1.761719 29.621094 -0.351562 27.453125 -0.453125 L 27.453125 0 L 38.6875 0 L 38.6875 -0.453125 C 36.519531 -0.351562 35.460938 -1.761719 35.460938 -7.101562 L 35.460938 -27.300781 C 35.460938 -32.640625 36.519531 -34.101562 38.6875 -34 L 38.6875 -34.457031 L 30.675781 -34.457031 L 19.039062 -1.257812 L 7.503906 -34.457031 L 0 -34.457031 L 0 -34 C 2.167969 -34.101562 3.222656 -32.640625 3.222656 -27.300781 L 3.222656 -7.101562 C 3.222656 -1.761719 2.167969 -0.351562 0 -0.453125 L 0 0 L 7.355469 0 L 7.355469 -0.453125 C 5.1875 -0.351562 4.128906 -1.761719 4.128906 -7.101562 L 4.128906 -29.519531 L 14.40625 0 L 19.542969 0 L 30.675781 -31.734375 Z M 30.675781 -7.101562 "/></g></g></g><g fill="#000000" fill-opacity="1"><g transform="translate(175.801976, 74.99357)"><g><path d="M 28.664062 -2.066406 L 28.308594 -2.367188 C 27.101562 -1.359375 25.691406 -2.46875 25.085938 -3.425781 C 22.917969 -6.648438 22.414062 -12.492188 21.308594 -17.628906 C 19.949219 -24.28125 18.132812 -27.351562 10.679688 -27.351562 C 6.800781 -27.351562 3.023438 -26.496094 0.0507812 -25.085938 L 1.664062 -20.855469 C 2.769531 -22.367188 5.136719 -24.734375 7.503906 -25.789062 C 11.285156 -27.503906 14.660156 -25.289062 12.492188 -21.054688 C 10.023438 -16.070312 0.453125 -14.660156 0 -7.152344 C -0.25 -2.46875 3.125 0 7.503906 0 C 14.660156 0 17.226562 -5.640625 17.679688 -11.636719 C 18.082031 -9.269531 18.585938 -6.953125 19.292969 -4.988281 C 20.300781 -2.265625 21.761719 0 25.035156 0 C 26.496094 0 27.90625 -0.605469 28.664062 -2.066406 Z M 16.371094 -19.039062 C 17.175781 -15.714844 17.027344 -11.082031 15.867188 -7.808594 C 14.757812 -4.632812 11.636719 -1.613281 7.910156 -2.519531 C 5.039062 -3.222656 4.230469 -5.84375 4.734375 -8.3125 C 5.792969 -13.148438 11.234375 -14.910156 13.398438 -18.789062 C 14.207031 -20.199219 14.660156 -22.214844 14.253906 -23.875 C 15.261719 -22.566406 15.917969 -20.855469 16.371094 -19.039062 Z M 16.371094 -19.039062 "/></g></g></g><g fill="#000000" fill-opacity="1"><g transform="translate(205.622827, 74.99357)"><g><path d="M 10.78125 -27.351562 C 4.835938 -27.351562 0.0507812 -22.566406 0.0507812 -16.625 C 0.0507812 -13.5 1.410156 -10.679688 3.527344 -8.714844 C 1.761719 -7.859375 0.25 -6.546875 0.0507812 -4.382812 C -0.351562 -0.351562 3.726562 1.160156 7.101562 1.109375 C 11.585938 0.957031 16.574219 -1.964844 20.703125 -3.222656 C 28.109375 -5.492188 30.171875 -0.707031 25.1875 2.570312 C 20.5 5.640625 6.5 8.109375 1.058594 3.476562 C 0.25 2.820312 -0.90625 1.613281 0.0507812 0.605469 L -0.152344 0.300781 C -1.8125 1.410156 -2.066406 3.929688 -1.308594 5.640625 C 0.351562 9.417969 6.800781 10.425781 10.375 10.425781 C 15.917969 10.425781 24.984375 9.21875 28.058594 3.878906 C 31.128906 -1.359375 27.050781 -8.109375 19.496094 -6.851562 C 12.996094 -5.792969 4.230469 -0.804688 1.761719 -3.929688 C 1.007812 -4.886719 1.460938 -6.296875 2.820312 -7.253906 C 3.222656 -7.554688 3.726562 -7.808594 4.28125 -8.058594 C 6.09375 -6.699219 8.363281 -5.894531 10.78125 -5.894531 C 16.722656 -5.894531 21.507812 -10.679688 21.507812 -16.625 C 21.507812 -20.046875 19.898438 -23.121094 17.378906 -25.085938 C 20.703125 -26.847656 23.574219 -23.675781 25.488281 -20.90625 L 27.101562 -25.085938 C 25.539062 -26.394531 23.523438 -27.351562 21.457031 -27.351562 C 19.644531 -27.351562 18.035156 -26.699219 16.574219 -25.691406 C 14.910156 -26.75 12.894531 -27.351562 10.78125 -27.351562 Z M 7.554688 -25.890625 C 10.78125 -27.050781 14.859375 -23.777344 16.671875 -18.6875 C 18.4375 -13.550781 17.277344 -8.460938 14.003906 -7.355469 C 10.78125 -6.195312 6.699219 -9.417969 4.9375 -14.558594 C 3.125 -19.695312 4.28125 -24.785156 7.554688 -25.890625 Z M 7.554688 -25.890625 "/></g></g></g><g fill="#000000" fill-opacity="1"><g transform="translate(235.997788, 74.99357)"><g><path d="M 28.664062 -2.066406 L 28.308594 -2.367188 C 27.101562 -1.359375 25.691406 -2.46875 25.085938 -3.425781 C 22.917969 -6.648438 22.414062 -12.492188 21.308594 -17.628906 C 19.949219 -24.28125 18.132812 -27.351562 10.679688 -27.351562 C 6.800781 -27.351562 3.023438 -26.496094 0.0507812 -25.085938 L 1.664062 -20.855469 C 2.769531 -22.367188 5.136719 -24.734375 7.503906 -25.789062 C 11.285156 -27.503906 14.660156 -25.289062 12.492188 -21.054688 C 10.023438 -16.070312 0.453125 -14.660156 0 -7.152344 C -0.25 -2.46875 3.125 0 7.503906 0 C 14.660156 0 17.226562 -5.640625 17.679688 -11.636719 C 18.082031 -9.269531 18.585938 -6.953125 19.292969 -4.988281 C 20.300781 -2.265625 21.761719 0 25.035156 0 C 26.496094 0 27.90625 -0.605469 28.664062 -2.066406 Z M 16.371094 -19.039062 C 17.175781 -15.714844 17.027344 -11.082031 15.867188 -7.808594 C 14.757812 -4.632812 11.636719 -1.613281 7.910156 -2.519531 C 5.039062 -3.222656 4.230469 -5.84375 4.734375 -8.3125 C 5.792969 -13.148438 11.234375 -14.910156 13.398438 -18.789062 C 14.207031 -20.199219 14.660156 -22.214844 14.253906 -23.875 C 15.261719 -22.566406 15.917969 -20.855469 16.371094 -19.039062 Z M 16.371094 -19.039062 "/></g></g></g><g fill="#000000" fill-opacity="1"><g transform="translate(265.818639, 74.99357)"><g><path d="M 16.824219 -26.445312 L -0.65625 0 L 20.855469 0 L 22.871094 -6.296875 L 22.414062 -6.296875 C 20.804688 -2.417969 15.96875 -0.90625 11.03125 -0.90625 L 5.339844 -0.90625 L 22.871094 -27.351562 L 1.359375 -27.351562 L 0 -22.316406 L 0.453125 -22.316406 C 1.8125 -25.640625 6.09375 -26.445312 10.125 -26.445312 Z M 16.824219 -26.445312 "/></g></g></g><g fill="#000000" fill-opacity="1"><g transform="translate(290.148829, 74.99357)"><g><path d="M 7.757812 -7.101562 L 7.757812 -27.351562 C 6.398438 -25.386719 2.972656 -24.027344 0 -24.027344 L 0 -23.574219 C 2.167969 -23.675781 3.222656 -22.214844 3.222656 -16.875 L 3.222656 -7.101562 C 3.222656 -1.761719 2.167969 -0.351562 0 -0.453125 L 0 0 L 10.980469 0 L 10.980469 -0.453125 C 8.816406 -0.351562 7.757812 -1.761719 7.757812 -7.101562 Z M 5.492188 -34.457031 C 3.675781 -34.457031 2.167969 -32.996094 2.167969 -31.179688 C 2.167969 -29.316406 3.675781 -27.855469 5.492188 -27.855469 C 7.304688 -27.855469 8.816406 -29.316406 8.816406 -31.179688 C 8.816406 -32.996094 7.304688 -34.457031 5.492188 -34.457031 Z M 5.492188 -34.457031 "/></g></g></g><g fill="#000000" fill-opacity="1"><g transform="translate(302.389479, 74.99357)"><g><path d="M 31.433594 -2.066406 L 31.082031 -2.367188 C 29.820312 -1.359375 28.460938 -2.46875 27.804688 -3.425781 C 24.785156 -7.957031 24.984375 -17.628906 22.316406 -23.324219 C 21.003906 -26.144531 18.890625 -27.351562 16.523438 -27.351562 C 12.894531 -27.351562 9.972656 -24.28125 7.757812 -21.308594 L 7.757812 -27.351562 C 6.398438 -25.386719 2.972656 -24.027344 0 -24.027344 L 0 -23.574219 C 2.167969 -23.675781 3.222656 -22.214844 3.222656 -16.875 L 3.222656 -7.101562 C 3.222656 -1.761719 2.167969 -0.351562 0 -0.453125 L 0 0 L 10.980469 0 L 10.980469 -0.453125 C 8.816406 -0.351562 7.757812 -1.761719 7.757812 -7.101562 L 7.757812 -19.695312 C 8.5625 -20.855469 9.621094 -22.164062 10.78125 -23.171875 C 13.550781 -25.539062 16.625 -25.890625 18.132812 -22.011719 C 20.300781 -16.421875 20.148438 -9.773438 22.414062 -4.230469 C 23.375 -1.863281 24.734375 0 27.753906 0 C 29.214844 0 30.675781 -0.605469 31.433594 -2.066406 Z M 31.433594 -2.066406 "/></g></g></g><g fill="#000000" fill-opacity="1"><g transform="translate(335.13197, 74.99357)"><g><path d="M 14.355469 -27.351562 C 6.851562 -27.351562 0.707031 -21.207031 0.707031 -13.652344 C 0.707031 -6.09375 6.851562 0 14.355469 0 C 20.804688 0 26.144531 -4.433594 27.65625 -10.375 L 27.203125 -10.375 C 25.488281 -5.441406 21.660156 -2.519531 17.628906 -2.066406 C 11.183594 -1.359375 6.546875 -6.75 5.1875 -12.492188 C 4.886719 -13.75 4.785156 -14.960938 4.734375 -16.167969 C 11.585938 -16.167969 18.636719 -16.167969 25.488281 -16.167969 C 25.539062 -21.558594 21.359375 -27.351562 14.355469 -27.351562 Z M 20.957031 -17.078125 L 4.785156 -17.078125 C 4.988281 -21.15625 6.953125 -24.582031 10.125 -25.691406 C 14.660156 -27.300781 20.25 -23.925781 20.957031 -17.078125 Z M 20.957031 -17.078125 "/></g></g></g></svg>