<svg xmlns="http://www.w3.org/2000/svg" xmlns:xlink="http://www.w3.org/1999/xlink" width="500" zoomAndPan="magnify" viewBox="0 0 375 374.999991" height="500" preserveAspectRatio="xMidYMid meet" version="1.0"><defs><clipPath id="id1"><path d="M 0 85.808594 L 203.25 85.808594 L 203.25 289.058594 L 0 289.058594 Z M 0 85.808594 " clip-rule="nonzero"/></clipPath><clipPath id="id2"><path d="M 218.445312 132.636719 L 375 132.636719 L 375 289.386719 L 218.445312 289.386719 Z M 218.445312 132.636719 " clip-rule="nonzero"/></clipPath></defs><g clip-path="url(#id1)"><path fill="#6851ff" d="M 101.625 85.808594 C 45.5 85.808594 0 131.308594 0 187.433594 C 0 243.558594 45.5 289.058594 101.625 289.058594 C 157.75 289.058594 203.25 243.558594 203.25 187.433594 C 203.25 131.308594 157.75 85.808594 101.625 85.808594 " fill-opacity="1" fill-rule="nonzero"/></g><g clip-path="url(#id2)"><path fill="#6851ff" d="M 296.820312 132.636719 C 253.535156 132.636719 218.445312 167.726562 218.445312 211.011719 C 218.445312 254.296875 253.535156 289.386719 296.820312 289.386719 C 340.109375 289.386719 375.195312 254.296875 375.195312 211.011719 C 375.195312 167.726562 340.109375 132.636719 296.820312 132.636719 " fill-opacity="1" fill-rule="nonzero"/></g></svg>