<svg xmlns="http://www.w3.org/2000/svg" xmlns:xlink="http://www.w3.org/1999/xlink" width="1000" zoomAndPan="magnify" viewBox="0 0 750 225" height="300" preserveAspectRatio="xMidYMid meet" version="1.0"><defs><g/><clipPath id="id1"><path d="M 0 45.433594 L 115.5 45.433594 L 115.5 160.933594 L 0 160.933594 Z M 0 45.433594 " clip-rule="nonzero"/></clipPath><clipPath id="id2"><path d="M 130.082031 72.015625 L 218.582031 72.015625 L 218.582031 160.515625 L 130.082031 160.515625 Z M 130.082031 72.015625 " clip-rule="nonzero"/></clipPath></defs><g fill="#000000" fill-opacity="1"><g transform="translate(230.495623, 156.090462)"><g><path d="M 57.84375 -14.171875 C 68.175781 -14.171875 76.613281 -17.585938 83.15625 -24.421875 C 89.695312 -31.253906 92.96875 -40.253906 92.96875 -51.421875 C 92.96875 -62.585938 89.695312 -71.5625 83.15625 -78.34375 C 76.613281 -85.132812 68.175781 -88.53125 57.84375 -88.53125 C 47.507812 -88.53125 39.070312 -85.132812 32.53125 -78.34375 C 25.988281 -71.5625 22.71875 -62.585938 22.71875 -51.421875 C 22.71875 -40.253906 25.988281 -31.253906 32.53125 -24.421875 C 39.070312 -17.585938 47.507812 -14.171875 57.84375 -14.171875 Z M 57.921875 1.03125 C 43.210938 1.03125 30.789062 -3.910156 20.65625 -13.796875 C 10.519531 -23.679688 5.453125 -36.222656 5.453125 -51.421875 C 5.453125 -66.617188 10.519531 -79.160156 20.65625 -89.046875 C 30.789062 -98.941406 43.210938 -103.890625 57.921875 -103.890625 C 72.628906 -103.890625 85.023438 -98.941406 95.109375 -89.046875 C 105.191406 -79.160156 110.234375 -66.617188 110.234375 -51.421875 C 110.234375 -36.222656 105.191406 -23.679688 95.109375 -13.796875 C 85.023438 -3.910156 72.628906 1.03125 57.921875 1.03125 Z M 57.921875 1.03125 "/></g></g></g><g fill="#000000" fill-opacity="1"><g transform="translate(346.181489, 156.090462)"><g><path d="M 67.875 -81.3125 L 84.703125 -81.3125 L 84.703125 0 L 67.875 0 L 67.875 -12.84375 C 62.5625 -3.488281 53.90625 1.1875 41.90625 1.1875 C 32.757812 1.1875 25.207031 -1.835938 19.25 -7.890625 C 13.300781 -13.941406 10.328125 -22.425781 10.328125 -33.34375 L 10.328125 -81.3125 L 27 -81.3125 L 27 -35.859375 C 27 -28.578125 28.816406 -22.992188 32.453125 -19.109375 C 36.097656 -15.222656 41.066406 -13.28125 47.359375 -13.28125 C 53.660156 -13.28125 58.65625 -15.222656 62.34375 -19.109375 C 66.03125 -22.992188 67.875 -28.578125 67.875 -35.859375 Z M 67.875 -81.3125 "/></g></g></g><g fill="#000000" fill-opacity="1"><g transform="translate(441.946965, 156.090462)"><g><path d="M 7.375 -57.984375 C 7.375 -64.878906 10.273438 -70.710938 16.078125 -75.484375 C 21.890625 -80.253906 29.515625 -82.640625 38.953125 -82.640625 C 48.398438 -82.640625 55.898438 -80.300781 61.453125 -75.625 C 67.015625 -70.945312 69.992188 -64.578125 70.390625 -56.515625 L 53.125 -56.515625 C 52.832031 -60.546875 51.429688 -63.691406 48.921875 -65.953125 C 46.410156 -68.222656 42.890625 -69.359375 38.359375 -69.359375 C 33.835938 -69.359375 30.296875 -68.347656 27.734375 -66.328125 C 25.179688 -64.304688 23.90625 -61.648438 23.90625 -58.359375 C 23.90625 -55.066406 25.523438 -52.484375 28.765625 -50.609375 C 32.015625 -48.742188 35.972656 -47.367188 40.640625 -46.484375 C 45.316406 -45.597656 49.992188 -44.515625 54.671875 -43.234375 C 59.347656 -41.953125 63.304688 -39.613281 66.546875 -36.21875 C 69.796875 -32.832031 71.421875 -28.285156 71.421875 -22.578125 C 71.421875 -15.492188 68.441406 -9.738281 62.484375 -5.3125 C 56.535156 -0.882812 48.890625 1.328125 39.546875 1.328125 C 30.203125 1.328125 22.625 -0.929688 16.8125 -5.453125 C 11.007812 -9.984375 7.816406 -16.429688 7.234375 -24.796875 L 24.640625 -24.796875 C 24.929688 -20.753906 26.40625 -17.601562 29.0625 -15.34375 C 31.71875 -13.082031 35.332031 -11.953125 39.90625 -11.953125 C 44.488281 -11.953125 48.128906 -12.957031 50.828125 -14.96875 C 53.535156 -16.988281 54.890625 -19.671875 54.890625 -23.015625 C 54.890625 -26.359375 53.265625 -28.960938 50.015625 -30.828125 C 46.773438 -32.703125 42.816406 -34.109375 38.140625 -35.046875 C 33.472656 -35.984375 28.800781 -37.066406 24.125 -38.296875 C 19.457031 -39.523438 15.5 -41.757812 12.25 -45 C 9 -48.25 7.375 -52.578125 7.375 -57.984375 Z M 7.375 -57.984375 "/></g></g></g><g fill="#000000" fill-opacity="1"><g transform="translate(520.743228, 156.090462)"><g><path d="M 50.46875 -67.578125 L 30.6875 -67.578125 L 30.6875 -22.578125 C 30.6875 -19.523438 31.398438 -17.332031 32.828125 -16 C 34.253906 -14.675781 36.691406 -14.015625 40.140625 -14.015625 L 50.46875 -14.015625 L 50.46875 0 L 37.1875 0 C 21.539062 0 13.71875 -7.523438 13.71875 -22.578125 L 13.71875 -67.578125 L 4.125 -67.578125 L 4.125 -81.3125 L 13.71875 -81.3125 L 13.71875 -101.515625 L 30.6875 -101.515625 L 30.6875 -81.3125 L 50.46875 -81.3125 Z M 50.46875 -67.578125 "/></g></g></g><g fill="#000000" fill-opacity="1"><g transform="translate(575.63498, 156.090462)"><g><path d="M 27.890625 -81.3125 L 27.890625 -67.140625 C 33.097656 -77.472656 41.210938 -82.640625 52.234375 -82.640625 L 52.234375 -65.21875 L 47.953125 -65.21875 C 41.367188 -65.21875 36.378906 -63.546875 32.984375 -60.203125 C 29.585938 -56.859375 27.890625 -51.054688 27.890625 -42.796875 L 27.890625 0 L 11.0625 0 L 11.0625 -81.3125 Z M 27.890625 -81.3125 "/></g></g></g><g fill="#000000" fill-opacity="1"><g transform="translate(632.297445, 156.090462)"><g><path d="M 63.890625 -20.21875 C 68.804688 -25.132812 71.265625 -31.96875 71.265625 -40.71875 C 71.265625 -49.476562 68.878906 -56.289062 64.109375 -61.15625 C 59.335938 -66.03125 53.554688 -68.46875 46.765625 -68.46875 C 39.984375 -68.46875 34.28125 -66.03125 29.65625 -61.15625 C 25.03125 -56.289062 22.71875 -49.457031 22.71875 -40.65625 C 22.71875 -31.851562 24.976562 -25.015625 29.5 -20.140625 C 34.03125 -15.273438 39.664062 -12.84375 46.40625 -12.84375 C 53.144531 -12.84375 58.972656 -15.300781 63.890625 -20.21875 Z M 46.40625 1.328125 C 34.550781 1.328125 24.785156 -2.53125 17.109375 -10.25 C 9.441406 -17.976562 5.609375 -28.113281 5.609375 -40.65625 C 5.609375 -53.195312 9.566406 -63.328125 17.484375 -71.046875 C 25.398438 -78.773438 35.257812 -82.640625 47.0625 -82.640625 C 58.875 -82.640625 68.738281 -78.773438 76.65625 -71.046875 C 84.570312 -63.328125 88.53125 -53.21875 88.53125 -40.71875 C 88.53125 -28.226562 84.472656 -18.097656 76.359375 -10.328125 C 68.242188 -2.554688 58.257812 1.328125 46.40625 1.328125 Z M 46.40625 1.328125 "/></g></g></g><g clip-path="url(#id1)"><path fill="#6851ff" d="M 57.75 45.433594 C 25.855469 45.433594 0 71.289062 0 103.183594 C 0 135.078125 25.855469 160.933594 57.75 160.933594 C 89.644531 160.933594 115.5 135.078125 115.5 103.183594 C 115.5 71.289062 89.644531 45.433594 57.75 45.433594 " fill-opacity="1" fill-rule="nonzero"/></g><g clip-path="url(#id2)"><path fill="#6851ff" d="M 174.332031 72.015625 C 149.894531 72.015625 130.082031 91.828125 130.082031 116.265625 C 130.082031 140.707031 149.894531 160.515625 174.332031 160.515625 C 198.773438 160.515625 218.582031 140.707031 218.582031 116.265625 C 218.582031 91.828125 198.773438 72.015625 174.332031 72.015625 " fill-opacity="1" fill-rule="nonzero"/></g></svg>