<svg xmlns="http://www.w3.org/2000/svg" xmlns:xlink="http://www.w3.org/1999/xlink" width="500" zoomAndPan="magnify" viewBox="0 0 375 374.999991" height="500" preserveAspectRatio="xMidYMid meet" version="1.0"><defs><clipPath id="id1"><path d="M 2.042969 59.378906 L 258.542969 59.378906 L 258.542969 315.878906 L 2.042969 315.878906 Z M 2.042969 59.378906 " clip-rule="nonzero"/></clipPath><clipPath id="id2"><path d="M 10.277344 67.613281 L 250.277344 67.613281 L 250.277344 307.613281 L 10.277344 307.613281 Z M 10.277344 67.613281 " clip-rule="nonzero"/></clipPath><clipPath id="id3"><path d="M 172.144531 114.808594 L 373.144531 114.808594 L 373.144531 315.808594 L 172.144531 315.808594 Z M 172.144531 114.808594 " clip-rule="nonzero"/></clipPath><clipPath id="id4"><path d="M 180.269531 122.820312 L 364.769531 122.820312 L 364.769531 307.320312 L 180.269531 307.320312 Z M 180.269531 122.820312 " clip-rule="nonzero"/></clipPath></defs><g clip-path="url(#id1)"><path fill="#ffffff" d="M 258.542969 187.628906 C 258.542969 189.730469 258.492188 191.828125 258.390625 193.921875 C 258.285156 196.019531 258.132812 198.113281 257.925781 200.199219 C 257.722656 202.289062 257.464844 204.371094 257.15625 206.449219 C 256.847656 208.523438 256.488281 210.59375 256.082031 212.648438 C 255.671875 214.707031 255.210938 216.757812 254.699219 218.792969 C 254.191406 220.828125 253.632812 222.851562 253.023438 224.859375 C 252.414062 226.867188 251.753906 228.859375 251.046875 230.835938 C 250.339844 232.8125 249.585938 234.769531 248.78125 236.710938 C 247.980469 238.648438 247.128906 240.566406 246.230469 242.464844 C 245.332031 244.363281 244.390625 246.234375 243.402344 248.085938 C 242.410156 249.9375 241.378906 251.761719 240.296875 253.5625 C 239.21875 255.363281 238.097656 257.136719 236.929688 258.882812 C 235.765625 260.628906 234.554688 262.34375 233.304688 264.027344 C 232.054688 265.714844 230.765625 267.367188 229.433594 268.992188 C 228.101562 270.613281 226.730469 272.203125 225.320312 273.757812 C 223.910156 275.3125 222.464844 276.832031 220.980469 278.316406 C 219.496094 279.800781 217.976562 281.246094 216.421875 282.65625 C 214.867188 284.066406 213.277344 285.4375 211.65625 286.769531 C 210.03125 288.101562 208.378906 289.390625 206.691406 290.640625 C 205.007812 291.890625 203.292969 293.101562 201.546875 294.265625 C 199.800781 295.433594 198.027344 296.554688 196.226562 297.632812 C 194.429688 298.710938 192.601562 299.746094 190.75 300.738281 C 188.898438 301.726562 187.027344 302.667969 185.128906 303.566406 C 183.230469 304.464844 181.3125 305.3125 179.375 306.117188 C 177.433594 306.921875 175.476562 307.675781 173.5 308.382812 C 171.523438 309.089844 169.53125 309.75 167.523438 310.359375 C 165.515625 310.96875 163.492188 311.527344 161.457031 312.035156 C 159.421875 312.546875 157.375 313.007812 155.316406 313.414062 C 153.257812 313.824219 151.1875 314.183594 149.113281 314.492188 C 147.035156 314.800781 144.953125 315.058594 142.863281 315.261719 C 140.777344 315.46875 138.683594 315.621094 136.585938 315.726562 C 134.492188 315.828125 132.394531 315.878906 130.292969 315.878906 C 128.195312 315.878906 126.097656 315.828125 124 315.726562 C 121.90625 315.621094 119.8125 315.46875 117.722656 315.261719 C 115.636719 315.058594 113.550781 314.800781 111.476562 314.492188 C 109.398438 314.183594 107.332031 313.824219 105.273438 313.414062 C 103.214844 313.007812 101.167969 312.546875 99.132812 312.035156 C 97.097656 311.527344 95.074219 310.96875 93.066406 310.359375 C 91.058594 309.75 89.066406 309.089844 87.089844 308.382812 C 85.113281 307.675781 83.15625 306.921875 81.214844 306.117188 C 79.277344 305.3125 77.359375 304.464844 75.460938 303.566406 C 73.5625 302.667969 71.6875 301.726562 69.835938 300.738281 C 67.988281 299.746094 66.160156 298.710938 64.359375 297.632812 C 62.558594 296.554688 60.789062 295.433594 59.042969 294.265625 C 57.296875 293.101562 55.582031 291.890625 53.894531 290.640625 C 52.210938 289.390625 50.554688 288.101562 48.933594 286.769531 C 47.3125 285.4375 45.722656 284.066406 44.167969 282.65625 C 42.613281 281.246094 41.09375 279.800781 39.609375 278.316406 C 38.125 276.832031 36.675781 275.3125 35.265625 273.757812 C 33.859375 272.203125 32.488281 270.613281 31.15625 268.992188 C 29.824219 267.367188 28.535156 265.714844 27.28125 264.027344 C 26.03125 262.34375 24.824219 260.628906 23.660156 258.882812 C 22.492188 257.136719 21.371094 255.363281 20.289062 253.5625 C 19.210938 251.761719 18.175781 249.9375 17.1875 248.085938 C 16.199219 246.234375 15.253906 244.363281 14.359375 242.464844 C 13.460938 240.566406 12.609375 238.648438 11.808594 236.710938 C 11.003906 234.769531 10.25 232.8125 9.542969 230.835938 C 8.835938 228.859375 8.175781 226.867188 7.566406 224.859375 C 6.957031 222.851562 6.398438 220.828125 5.886719 218.792969 C 5.378906 216.757812 4.917969 214.707031 4.507812 212.648438 C 4.097656 210.589844 3.742188 208.523438 3.433594 206.449219 C 3.125 204.371094 2.867188 202.289062 2.660156 200.199219 C 2.457031 198.113281 2.300781 196.019531 2.199219 193.921875 C 2.097656 191.828125 2.042969 189.730469 2.042969 187.628906 C 2.042969 185.53125 2.097656 183.433594 2.199219 181.335938 C 2.300781 179.242188 2.457031 177.148438 2.660156 175.058594 C 2.867188 172.96875 3.125 170.886719 3.433594 168.8125 C 3.742188 166.734375 4.097656 164.667969 4.507812 162.609375 C 4.917969 160.550781 5.378906 158.503906 5.886719 156.46875 C 6.398438 154.433594 6.957031 152.410156 7.566406 150.402344 C 8.175781 148.390625 8.835938 146.398438 9.542969 144.425781 C 10.25 142.449219 11.003906 140.488281 11.808594 138.550781 C 12.609375 136.613281 13.460938 134.695312 14.359375 132.796875 C 15.253906 130.898438 16.199219 129.023438 17.1875 127.171875 C 18.175781 125.324219 19.210938 123.496094 20.289062 121.695312 C 21.371094 119.894531 22.492188 118.125 23.660156 116.378906 C 24.824219 114.632812 26.03125 112.917969 27.28125 111.230469 C 28.535156 109.546875 29.824219 107.890625 31.15625 106.269531 C 32.488281 104.648438 33.859375 103.058594 35.265625 101.503906 C 36.675781 99.949219 38.125 98.429688 39.609375 96.945312 C 41.09375 95.460938 42.613281 94.011719 44.167969 92.601562 C 45.722656 91.195312 47.3125 89.824219 48.933594 88.492188 C 50.554688 87.160156 52.210938 85.867188 53.894531 84.617188 C 55.582031 83.367188 57.296875 82.160156 59.042969 80.992188 C 60.789062 79.828125 62.558594 78.707031 64.359375 77.625 C 66.160156 76.546875 67.988281 75.511719 69.835938 74.523438 C 71.6875 73.535156 73.5625 72.589844 75.460938 71.695312 C 77.359375 70.796875 79.277344 69.945312 81.214844 69.140625 C 83.15625 68.339844 85.113281 67.585938 87.089844 66.878906 C 89.066406 66.171875 91.058594 65.511719 93.066406 64.902344 C 95.074219 64.292969 97.097656 63.734375 99.132812 63.222656 C 101.167969 62.714844 103.214844 62.253906 105.273438 61.84375 C 107.332031 61.433594 109.398438 61.074219 111.476562 60.769531 C 113.550781 60.460938 115.636719 60.203125 117.722656 59.996094 C 119.8125 59.792969 121.90625 59.636719 124 59.535156 C 126.097656 59.429688 128.195312 59.378906 130.292969 59.378906 C 132.394531 59.378906 134.492188 59.429688 136.585938 59.535156 C 138.683594 59.636719 140.777344 59.792969 142.863281 59.996094 C 144.953125 60.203125 147.035156 60.460938 149.113281 60.769531 C 151.1875 61.074219 153.257812 61.433594 155.316406 61.84375 C 157.375 62.253906 159.421875 62.714844 161.457031 63.222656 C 163.492188 63.734375 165.515625 64.292969 167.523438 64.902344 C 169.53125 65.511719 171.523438 66.171875 173.5 66.878906 C 175.476562 67.585938 177.433594 68.339844 179.375 69.140625 C 181.3125 69.945312 183.230469 70.796875 185.128906 71.695312 C 187.027344 72.589844 188.898438 73.535156 190.75 74.523438 C 192.601562 75.511719 194.429688 76.546875 196.226562 77.625 C 198.027344 78.707031 199.800781 79.828125 201.546875 80.992188 C 203.292969 82.160156 205.007812 83.367188 206.691406 84.617188 C 208.378906 85.867188 210.03125 87.160156 211.65625 88.492188 C 213.277344 89.824219 214.867188 91.195312 216.421875 92.601562 C 217.976562 94.011719 219.496094 95.460938 220.980469 96.945312 C 222.464844 98.429688 223.910156 99.949219 225.320312 101.503906 C 226.730469 103.058594 228.101562 104.648438 229.433594 106.269531 C 230.765625 107.890625 232.054688 109.546875 233.304688 111.230469 C 234.554688 112.917969 235.765625 114.632812 236.929688 116.378906 C 238.097656 118.125 239.21875 119.894531 240.296875 121.695312 C 241.378906 123.496094 242.410156 125.324219 243.402344 127.171875 C 244.390625 129.023438 245.332031 130.898438 246.230469 132.796875 C 247.128906 134.695312 247.980469 136.613281 248.78125 138.550781 C 249.585938 140.488281 250.339844 142.449219 251.046875 144.425781 C 251.753906 146.398438 252.414062 148.390625 253.023438 150.402344 C 253.632812 152.410156 254.191406 154.433594 254.699219 156.46875 C 255.210938 158.503906 255.671875 160.550781 256.082031 162.609375 C 256.488281 164.667969 256.847656 166.734375 257.15625 168.8125 C 257.464844 170.886719 257.722656 172.96875 257.925781 175.058594 C 258.132812 177.148438 258.285156 179.242188 258.390625 181.335938 C 258.492188 183.433594 258.542969 185.53125 258.542969 187.628906 Z M 258.542969 187.628906 " fill-opacity="1" fill-rule="nonzero"/></g><g clip-path="url(#id2)"><path fill="#6851ff" d="M 130.277344 67.613281 C 64.003906 67.613281 10.277344 121.339844 10.277344 187.613281 C 10.277344 253.886719 64.003906 307.613281 130.277344 307.613281 C 196.550781 307.613281 250.277344 253.886719 250.277344 187.613281 C 250.277344 121.339844 196.550781 67.613281 130.277344 67.613281 " fill-opacity="1" fill-rule="nonzero"/></g><g clip-path="url(#id3)"><path fill="#ffffff" d="M 373.144531 215.308594 C 373.144531 216.953125 373.105469 218.597656 373.023438 220.242188 C 372.941406 221.882812 372.824219 223.523438 372.660156 225.160156 C 372.5 226.796875 372.296875 228.429688 372.058594 230.054688 C 371.816406 231.683594 371.535156 233.304688 371.214844 234.917969 C 370.894531 236.527344 370.53125 238.132812 370.132812 239.730469 C 369.734375 241.324219 369.296875 242.910156 368.816406 244.484375 C 368.339844 246.058594 367.824219 247.617188 367.269531 249.167969 C 366.714844 250.714844 366.125 252.25 365.496094 253.769531 C 364.867188 255.289062 364.199219 256.792969 363.496094 258.277344 C 362.792969 259.765625 362.054688 261.234375 361.277344 262.683594 C 360.503906 264.136719 359.691406 265.566406 358.847656 266.976562 C 358 268.386719 357.121094 269.777344 356.207031 271.144531 C 355.292969 272.511719 354.347656 273.855469 353.367188 275.175781 C 352.386719 276.5 351.375 277.792969 350.332031 279.066406 C 349.289062 280.335938 348.214844 281.582031 347.109375 282.800781 C 346.007812 284.019531 344.871094 285.210938 343.710938 286.375 C 342.546875 287.535156 341.355469 288.671875 340.136719 289.773438 C 338.917969 290.878906 337.671875 291.953125 336.402344 292.996094 C 335.128906 294.039062 333.832031 295.050781 332.511719 296.03125 C 331.191406 297.011719 329.847656 297.957031 328.480469 298.871094 C 327.113281 299.785156 325.722656 300.664062 324.3125 301.511719 C 322.902344 302.355469 321.472656 303.167969 320.019531 303.941406 C 318.570312 304.71875 317.101562 305.457031 315.613281 306.160156 C 314.128906 306.863281 312.625 307.53125 311.105469 308.160156 C 309.585938 308.789062 308.050781 309.378906 306.503906 309.933594 C 304.953125 310.488281 303.394531 311.003906 301.820312 311.480469 C 300.246094 311.960938 298.660156 312.398438 297.066406 312.796875 C 295.46875 313.199219 293.863281 313.558594 292.25 313.878906 C 290.636719 314.199219 289.019531 314.480469 287.390625 314.722656 C 285.765625 314.964844 284.132812 315.164062 282.496094 315.324219 C 280.859375 315.488281 279.21875 315.609375 277.578125 315.6875 C 275.933594 315.769531 274.289062 315.808594 272.644531 315.808594 C 271 315.808594 269.355469 315.769531 267.714844 315.6875 C 266.070312 315.609375 264.429688 315.488281 262.792969 315.324219 C 261.15625 315.164062 259.527344 314.964844 257.898438 314.722656 C 256.273438 314.480469 254.652344 314.199219 253.039062 313.878906 C 251.425781 313.558594 249.820312 313.199219 248.226562 312.796875 C 246.628906 312.398438 245.046875 311.960938 243.472656 311.480469 C 241.898438 311.003906 240.335938 310.488281 238.789062 309.933594 C 237.238281 309.378906 235.703125 308.789062 234.183594 308.160156 C 232.664062 307.53125 231.164062 306.863281 229.675781 306.160156 C 228.1875 305.457031 226.71875 304.71875 225.269531 303.941406 C 223.820312 303.167969 222.386719 302.355469 220.976562 301.511719 C 219.566406 300.664062 218.179688 299.785156 216.808594 298.871094 C 215.441406 297.957031 214.097656 297.011719 212.777344 296.03125 C 211.457031 295.050781 210.160156 294.039062 208.886719 292.996094 C 207.617188 291.953125 206.371094 290.878906 205.152344 289.773438 C 203.933594 288.671875 202.742188 287.535156 201.582031 286.375 C 200.417969 285.210938 199.285156 284.019531 198.179688 282.800781 C 197.074219 281.582031 196 280.335938 194.957031 279.066406 C 193.914062 277.792969 192.902344 276.5 191.921875 275.175781 C 190.941406 273.855469 189.996094 272.511719 189.082031 271.144531 C 188.167969 269.777344 187.289062 268.386719 186.445312 266.976562 C 185.597656 265.566406 184.789062 264.136719 184.011719 262.683594 C 183.238281 261.234375 182.496094 259.765625 181.792969 258.277344 C 181.089844 256.792969 180.425781 255.289062 179.796875 253.769531 C 179.164062 252.25 178.574219 250.714844 178.019531 249.167969 C 177.464844 247.617188 176.949219 246.058594 176.472656 244.484375 C 175.996094 242.910156 175.554688 241.324219 175.15625 239.730469 C 174.757812 238.132812 174.398438 236.527344 174.074219 234.917969 C 173.753906 233.304688 173.472656 231.683594 173.234375 230.054688 C 172.992188 228.429688 172.789062 226.796875 172.628906 225.160156 C 172.46875 223.523438 172.347656 221.882812 172.265625 220.242188 C 172.183594 218.597656 172.144531 216.953125 172.144531 215.308594 C 172.144531 213.664062 172.183594 212.019531 172.265625 210.378906 C 172.347656 208.734375 172.46875 207.09375 172.628906 205.457031 C 172.789062 203.820312 172.992188 202.191406 173.234375 200.5625 C 173.472656 198.9375 173.753906 197.316406 174.074219 195.703125 C 174.398438 194.089844 174.757812 192.484375 175.15625 190.890625 C 175.554688 189.292969 175.996094 187.710938 176.472656 186.136719 C 176.949219 184.5625 177.464844 183 178.019531 181.453125 C 178.574219 179.902344 179.164062 178.371094 179.796875 176.851562 C 180.425781 175.332031 181.089844 173.828125 181.792969 172.339844 C 182.496094 170.851562 183.238281 169.382812 184.011719 167.933594 C 184.789062 166.484375 185.597656 165.054688 186.445312 163.640625 C 187.289062 162.230469 188.167969 160.84375 189.082031 159.476562 C 189.996094 158.105469 190.941406 156.761719 191.921875 155.441406 C 192.902344 154.121094 193.914062 152.824219 194.957031 151.554688 C 196 150.28125 197.074219 149.035156 198.179688 147.816406 C 199.285156 146.597656 200.417969 145.410156 201.582031 144.246094 C 202.742188 143.082031 203.933594 141.949219 205.152344 140.84375 C 206.371094 139.738281 207.617188 138.664062 208.886719 137.621094 C 210.160156 136.578125 211.457031 135.566406 212.777344 134.585938 C 214.097656 133.605469 215.441406 132.660156 216.808594 131.746094 C 218.179688 130.832031 219.566406 129.953125 220.976562 129.109375 C 222.386719 128.261719 223.820312 127.453125 225.269531 126.675781 C 226.71875 125.902344 228.1875 125.160156 229.675781 124.457031 C 231.164062 123.753906 232.664062 123.089844 234.183594 122.460938 C 235.703125 121.832031 237.238281 121.238281 238.789062 120.683594 C 240.335938 120.128906 241.898438 119.613281 243.472656 119.136719 C 245.046875 118.660156 246.628906 118.222656 248.226562 117.820312 C 249.820312 117.421875 251.425781 117.0625 253.039062 116.742188 C 254.652344 116.417969 256.273438 116.136719 257.898438 115.898438 C 259.527344 115.65625 261.15625 115.453125 262.792969 115.292969 C 264.429688 115.132812 266.070312 115.011719 267.714844 114.929688 C 269.355469 114.851562 271 114.808594 272.644531 114.808594 C 274.289062 114.808594 275.933594 114.851562 277.578125 114.929688 C 279.21875 115.011719 280.859375 115.132812 282.496094 115.292969 C 284.132812 115.453125 285.765625 115.65625 287.390625 115.898438 C 289.019531 116.136719 290.636719 116.417969 292.25 116.742188 C 293.863281 117.0625 295.46875 117.421875 297.066406 117.820312 C 298.660156 118.222656 300.246094 118.660156 301.820312 119.136719 C 303.394531 119.613281 304.953125 120.128906 306.503906 120.683594 C 308.050781 121.238281 309.585938 121.832031 311.105469 122.460938 C 312.625 123.089844 314.128906 123.753906 315.613281 124.457031 C 317.101562 125.160156 318.570312 125.902344 320.019531 126.675781 C 321.472656 127.453125 322.902344 128.261719 324.3125 129.109375 C 325.722656 129.953125 327.113281 130.832031 328.480469 131.746094 C 329.847656 132.660156 331.191406 133.605469 332.511719 134.585938 C 333.832031 135.566406 335.128906 136.578125 336.402344 137.621094 C 337.671875 138.664062 338.917969 139.738281 340.136719 140.84375 C 341.355469 141.949219 342.546875 143.082031 343.710938 144.246094 C 344.871094 145.410156 346.007812 146.597656 347.109375 147.816406 C 348.214844 149.035156 349.289062 150.28125 350.332031 151.554688 C 351.375 152.824219 352.386719 154.121094 353.367188 155.441406 C 354.347656 156.761719 355.292969 158.105469 356.207031 159.476562 C 357.121094 160.84375 358 162.230469 358.847656 163.640625 C 359.691406 165.054688 360.503906 166.484375 361.277344 167.933594 C 362.054688 169.382812 362.792969 170.851562 363.496094 172.339844 C 364.199219 173.828125 364.867188 175.332031 365.496094 176.851562 C 366.125 178.371094 366.714844 179.902344 367.269531 181.453125 C 367.824219 183 368.339844 184.5625 368.816406 186.136719 C 369.296875 187.710938 369.734375 189.292969 370.132812 190.890625 C 370.53125 192.484375 370.894531 194.089844 371.214844 195.703125 C 371.535156 197.316406 371.816406 198.9375 372.058594 200.5625 C 372.296875 202.191406 372.5 203.820312 372.660156 205.457031 C 372.824219 207.09375 372.941406 208.734375 373.023438 210.378906 C 373.105469 212.019531 373.144531 213.664062 373.144531 215.308594 Z M 373.144531 215.308594 " fill-opacity="1" fill-rule="nonzero"/></g><g clip-path="url(#id4)"><path fill="#6851ff" d="M 272.519531 122.820312 C 221.570312 122.820312 180.269531 164.125 180.269531 215.070312 C 180.269531 266.019531 221.570312 307.320312 272.519531 307.320312 C 323.464844 307.320312 364.769531 266.019531 364.769531 215.070312 C 364.769531 164.125 323.464844 122.820312 272.519531 122.820312 " fill-opacity="1" fill-rule="nonzero"/></g></svg>