<svg xmlns="http://www.w3.org/2000/svg" xmlns:xlink="http://www.w3.org/1999/xlink" width="1000" zoomAndPan="magnify" viewBox="0 0 750 225" height="300" preserveAspectRatio="xMidYMid meet" version="1.0"><defs><g/><clipPath id="id1"><path d="M 0 22.5 L 151.5 22.5 L 151.5 174 L 0 174 Z M 0 22.5 " clip-rule="nonzero"/></clipPath><clipPath id="id2"><path d="M 4.875 27.375 L 146.625 27.375 L 146.625 169.125 L 4.875 169.125 Z M 4.875 27.375 " clip-rule="nonzero"/></clipPath><clipPath id="id3"><path d="M 100.730469 55.324219 L 219.980469 55.324219 L 219.980469 174.574219 L 100.730469 174.574219 Z M 100.730469 55.324219 " clip-rule="nonzero"/></clipPath><clipPath id="id4"><path d="M 105.542969 60.070312 L 215.042969 60.070312 L 215.042969 169.570312 L 105.542969 169.570312 Z M 105.542969 60.070312 " clip-rule="nonzero"/></clipPath></defs><g clip-path="url(#id1)"><path fill="#ffffff" d="M 151.5 98.25 C 151.5 99.488281 151.46875 100.730469 151.410156 101.96875 C 151.347656 103.207031 151.257812 104.441406 151.136719 105.675781 C 151.015625 106.910156 150.863281 108.136719 150.679688 109.363281 C 150.5 110.589844 150.285156 111.8125 150.042969 113.027344 C 149.800781 114.242188 149.53125 115.453125 149.230469 116.65625 C 148.929688 117.859375 148.597656 119.054688 148.238281 120.238281 C 147.878906 121.425781 147.488281 122.601562 147.070312 123.769531 C 146.652344 124.9375 146.207031 126.09375 145.734375 127.238281 C 145.257812 128.382812 144.757812 129.515625 144.226562 130.636719 C 143.695312 131.757812 143.140625 132.863281 142.554688 133.957031 C 141.972656 135.050781 141.359375 136.128906 140.722656 137.191406 C 140.085938 138.257812 139.421875 139.304688 138.734375 140.335938 C 138.046875 141.363281 137.332031 142.378906 136.59375 143.375 C 135.855469 144.371094 135.09375 145.347656 134.304688 146.304688 C 133.519531 147.261719 132.710938 148.203125 131.878906 149.121094 C 131.042969 150.039062 130.191406 150.9375 129.3125 151.8125 C 128.4375 152.691406 127.539062 153.542969 126.621094 154.378906 C 125.703125 155.210938 124.761719 156.019531 123.804688 156.804688 C 122.847656 157.59375 121.871094 158.355469 120.875 159.09375 C 119.878906 159.832031 118.863281 160.546875 117.835938 161.234375 C 116.804688 161.921875 115.757812 162.585938 114.691406 163.222656 C 113.628906 163.859375 112.550781 164.472656 111.457031 165.054688 C 110.363281 165.640625 109.257812 166.195312 108.136719 166.726562 C 107.015625 167.257812 105.882812 167.757812 104.738281 168.234375 C 103.59375 168.707031 102.4375 169.152344 101.269531 169.570312 C 100.101562 169.988281 98.925781 170.378906 97.738281 170.738281 C 96.550781 171.097656 95.359375 171.429688 94.15625 171.730469 C 92.953125 172.03125 91.742188 172.300781 90.527344 172.542969 C 89.3125 172.785156 88.089844 173 86.863281 173.179688 C 85.636719 173.363281 84.410156 173.515625 83.175781 173.636719 C 81.941406 173.757812 80.707031 173.847656 79.46875 173.910156 C 78.230469 173.96875 76.988281 174 75.75 174 C 74.511719 174 73.269531 173.96875 72.03125 173.910156 C 70.792969 173.847656 69.558594 173.757812 68.324219 173.636719 C 67.089844 173.515625 65.863281 173.363281 64.636719 173.179688 C 63.410156 173 62.1875 172.785156 60.972656 172.542969 C 59.757812 172.300781 58.546875 172.03125 57.34375 171.730469 C 56.140625 171.429688 54.945312 171.097656 53.761719 170.738281 C 52.574219 170.378906 51.398438 169.988281 50.230469 169.570312 C 49.0625 169.152344 47.90625 168.707031 46.761719 168.234375 C 45.617188 167.757812 44.484375 167.257812 43.363281 166.726562 C 42.242188 166.195312 41.136719 165.640625 40.042969 165.054688 C 38.949219 164.472656 37.871094 163.859375 36.808594 163.222656 C 35.742188 162.585938 34.695312 161.921875 33.664062 161.234375 C 32.636719 160.546875 31.621094 159.832031 30.625 159.09375 C 29.628906 158.355469 28.652344 157.59375 27.695312 156.804688 C 26.738281 156.019531 25.796875 155.210938 24.878906 154.378906 C 23.960938 153.542969 23.0625 152.691406 22.1875 151.8125 C 21.308594 150.9375 20.457031 150.039062 19.621094 149.121094 C 18.789062 148.203125 17.980469 147.261719 17.195312 146.304688 C 16.40625 145.347656 15.644531 144.371094 14.90625 143.375 C 14.167969 142.378906 13.453125 141.363281 12.765625 140.335938 C 12.078125 139.304688 11.414062 138.257812 10.777344 137.191406 C 10.140625 136.128906 9.527344 135.050781 8.945312 133.957031 C 8.359375 132.863281 7.804688 131.757812 7.273438 130.636719 C 6.742188 129.515625 6.242188 128.382812 5.765625 127.238281 C 5.292969 126.09375 4.84375 124.9375 4.429688 123.769531 C 4.011719 122.601562 3.621094 121.425781 3.261719 120.238281 C 2.902344 119.050781 2.570312 117.859375 2.269531 116.65625 C 1.96875 115.453125 1.699219 114.242188 1.457031 113.027344 C 1.214844 111.8125 1 110.589844 0.820312 109.363281 C 0.636719 108.136719 0.484375 106.910156 0.363281 105.675781 C 0.242188 104.441406 0.152344 103.207031 0.0898438 101.96875 C 0.03125 100.730469 0 99.488281 0 98.25 C 0 97.011719 0.03125 95.769531 0.0898438 94.53125 C 0.152344 93.292969 0.242188 92.058594 0.363281 90.824219 C 0.484375 89.589844 0.636719 88.363281 0.820312 87.136719 C 1 85.910156 1.214844 84.6875 1.457031 83.472656 C 1.699219 82.257812 1.96875 81.046875 2.269531 79.84375 C 2.570312 78.640625 2.902344 77.445312 3.261719 76.261719 C 3.621094 75.074219 4.011719 73.898438 4.429688 72.730469 C 4.84375 71.5625 5.292969 70.40625 5.765625 69.261719 C 6.242188 68.117188 6.742188 66.984375 7.273438 65.863281 C 7.804688 64.742188 8.359375 63.636719 8.945312 62.542969 C 9.527344 61.449219 10.140625 60.371094 10.777344 59.308594 C 11.414062 58.242188 12.078125 57.195312 12.765625 56.164062 C 13.453125 55.136719 14.167969 54.121094 14.90625 53.125 C 15.644531 52.128906 16.40625 51.152344 17.195312 50.195312 C 17.980469 49.238281 18.789062 48.296875 19.621094 47.378906 C 20.457031 46.460938 21.308594 45.5625 22.1875 44.6875 C 23.0625 43.808594 23.960938 42.957031 24.878906 42.121094 C 25.796875 41.289062 26.738281 40.480469 27.695312 39.695312 C 28.652344 38.90625 29.628906 38.144531 30.625 37.40625 C 31.621094 36.667969 32.636719 35.953125 33.664062 35.265625 C 34.695312 34.578125 35.742188 33.914062 36.808594 33.277344 C 37.871094 32.640625 38.949219 32.027344 40.042969 31.445312 C 41.136719 30.859375 42.242188 30.304688 43.363281 29.773438 C 44.484375 29.242188 45.617188 28.742188 46.761719 28.265625 C 47.90625 27.792969 49.0625 27.34375 50.230469 26.929688 C 51.398438 26.511719 52.574219 26.121094 53.761719 25.761719 C 54.945312 25.402344 56.140625 25.070312 57.34375 24.769531 C 58.546875 24.46875 59.757812 24.199219 60.972656 23.957031 C 62.1875 23.714844 63.410156 23.5 64.636719 23.320312 C 65.863281 23.136719 67.089844 22.984375 68.324219 22.863281 C 69.558594 22.742188 70.792969 22.652344 72.03125 22.589844 C 73.269531 22.53125 74.511719 22.5 75.75 22.5 C 76.988281 22.5 78.230469 22.53125 79.46875 22.589844 C 80.707031 22.652344 81.941406 22.742188 83.175781 22.863281 C 84.410156 22.984375 85.636719 23.136719 86.863281 23.320312 C 88.089844 23.5 89.3125 23.714844 90.527344 23.957031 C 91.742188 24.199219 92.953125 24.46875 94.15625 24.769531 C 95.359375 25.070312 96.550781 25.402344 97.738281 25.761719 C 98.925781 26.121094 100.101562 26.511719 101.269531 26.929688 C 102.4375 27.34375 103.59375 27.792969 104.738281 28.265625 C 105.882812 28.742188 107.015625 29.242188 108.136719 29.773438 C 109.257812 30.304688 110.363281 30.859375 111.457031 31.445312 C 112.550781 32.027344 113.628906 32.640625 114.691406 33.277344 C 115.757812 33.914062 116.804688 34.578125 117.835938 35.265625 C 118.863281 35.953125 119.878906 36.667969 120.875 37.40625 C 121.871094 38.144531 122.847656 38.90625 123.804688 39.695312 C 124.761719 40.480469 125.703125 41.289062 126.621094 42.121094 C 127.539062 42.957031 128.4375 43.808594 129.3125 44.6875 C 130.191406 45.5625 131.042969 46.460938 131.878906 47.378906 C 132.710938 48.296875 133.519531 49.238281 134.304688 50.195312 C 135.09375 51.152344 135.855469 52.128906 136.59375 53.125 C 137.332031 54.121094 138.046875 55.136719 138.734375 56.164062 C 139.421875 57.195312 140.085938 58.242188 140.722656 59.308594 C 141.359375 60.371094 141.972656 61.449219 142.554688 62.542969 C 143.140625 63.636719 143.695312 64.742188 144.226562 65.863281 C 144.757812 66.984375 145.257812 68.117188 145.734375 69.261719 C 146.207031 70.40625 146.652344 71.5625 147.070312 72.730469 C 147.488281 73.898438 147.878906 75.074219 148.238281 76.261719 C 148.597656 77.445312 148.929688 78.640625 149.230469 79.84375 C 149.53125 81.046875 149.800781 82.257812 150.042969 83.472656 C 150.285156 84.6875 150.5 85.910156 150.679688 87.136719 C 150.863281 88.363281 151.015625 89.589844 151.136719 90.824219 C 151.257812 92.058594 151.347656 93.292969 151.410156 94.53125 C 151.46875 95.769531 151.5 97.011719 151.5 98.25 Z M 151.5 98.25 " fill-opacity="1" fill-rule="nonzero"/></g><g clip-path="url(#id2)"><path fill="#6851ff" d="M 75.75 27.375 C 36.609375 27.375 4.875 59.109375 4.875 98.25 C 4.875 137.394531 36.609375 169.125 75.75 169.125 C 114.894531 169.125 146.625 137.394531 146.625 98.25 C 146.625 59.109375 114.894531 27.375 75.75 27.375 " fill-opacity="1" fill-rule="nonzero"/></g><g clip-path="url(#id3)"><path fill="#ffffff" d="M 219.980469 114.949219 C 219.980469 116.902344 219.886719 118.851562 219.695312 120.792969 C 219.503906 122.738281 219.21875 124.667969 218.835938 126.582031 C 218.457031 128.496094 217.980469 130.390625 217.414062 132.257812 C 216.847656 134.125 216.191406 135.964844 215.445312 137.765625 C 214.695312 139.570312 213.863281 141.335938 212.941406 143.058594 C 212.019531 144.777344 211.019531 146.453125 209.933594 148.074219 C 208.847656 149.699219 207.6875 151.265625 206.449219 152.777344 C 205.210938 154.285156 203.898438 155.730469 202.519531 157.109375 C 201.136719 158.492188 199.691406 159.800781 198.183594 161.039062 C 196.671875 162.28125 195.105469 163.441406 193.484375 164.527344 C 191.859375 165.609375 190.1875 166.613281 188.464844 167.535156 C 186.742188 168.453125 184.980469 169.289062 183.175781 170.035156 C 181.371094 170.785156 179.535156 171.441406 177.664062 172.007812 C 175.796875 172.574219 173.90625 173.046875 171.988281 173.429688 C 170.074219 173.808594 168.144531 174.097656 166.203125 174.289062 C 164.257812 174.480469 162.308594 174.574219 160.355469 174.574219 C 158.40625 174.574219 156.457031 174.480469 154.511719 174.289062 C 152.570312 174.097656 150.640625 173.808594 148.726562 173.429688 C 146.808594 173.046875 144.917969 172.574219 143.050781 172.007812 C 141.179688 171.441406 139.34375 170.785156 137.539062 170.035156 C 135.734375 169.289062 133.972656 168.453125 132.25 167.535156 C 130.527344 166.613281 128.855469 165.609375 127.230469 164.527344 C 125.609375 163.441406 124.042969 162.28125 122.53125 161.039062 C 121.023438 159.800781 119.578125 158.492188 118.195312 157.109375 C 116.816406 155.730469 115.503906 154.285156 114.265625 152.777344 C 113.027344 151.265625 111.867188 149.699219 110.78125 148.074219 C 109.695312 146.453125 108.695312 144.777344 107.773438 143.058594 C 106.851562 141.335938 106.019531 139.570312 105.269531 137.765625 C 104.523438 135.964844 103.867188 134.125 103.300781 132.257812 C 102.734375 130.390625 102.257812 128.496094 101.878906 126.582031 C 101.496094 124.667969 101.210938 122.738281 101.019531 120.792969 C 100.828125 118.851562 100.730469 116.902344 100.730469 114.949219 C 100.730469 112.996094 100.828125 111.050781 101.019531 109.105469 C 101.210938 107.164062 101.496094 105.234375 101.878906 103.316406 C 102.257812 101.402344 102.734375 99.511719 103.300781 97.640625 C 103.867188 95.773438 104.523438 93.9375 105.269531 92.132812 C 106.019531 90.328125 106.851562 88.566406 107.773438 86.84375 C 108.695312 85.121094 109.695312 83.449219 110.78125 81.824219 C 111.867188 80.199219 113.027344 78.632812 114.265625 77.125 C 115.503906 75.613281 116.816406 74.167969 118.195312 72.789062 C 119.578125 71.40625 121.023438 70.097656 122.53125 68.859375 C 124.042969 67.621094 125.609375 66.457031 127.230469 65.375 C 128.855469 64.289062 130.527344 63.285156 132.25 62.367188 C 133.972656 61.445312 135.734375 60.609375 137.539062 59.863281 C 139.34375 59.117188 141.179688 58.460938 143.050781 57.890625 C 144.917969 57.324219 146.808594 56.851562 148.726562 56.46875 C 150.640625 56.089844 152.570312 55.804688 154.511719 55.613281 C 156.457031 55.421875 158.40625 55.324219 160.355469 55.324219 C 162.308594 55.324219 164.257812 55.421875 166.203125 55.613281 C 168.144531 55.804688 170.074219 56.089844 171.988281 56.46875 C 173.90625 56.851562 175.796875 57.324219 177.664062 57.890625 C 179.535156 58.460938 181.371094 59.117188 183.175781 59.863281 C 184.980469 60.609375 186.742188 61.445312 188.464844 62.367188 C 190.1875 63.285156 191.859375 64.289062 193.484375 65.375 C 195.105469 66.457031 196.671875 67.621094 198.183594 68.859375 C 199.691406 70.097656 201.136719 71.40625 202.519531 72.789062 C 203.898438 74.167969 205.210938 75.613281 206.449219 77.125 C 207.6875 78.632812 208.847656 80.199219 209.933594 81.824219 C 211.019531 83.449219 212.019531 85.121094 212.941406 86.84375 C 213.863281 88.566406 214.695312 90.328125 215.445312 92.132812 C 216.191406 93.9375 216.847656 95.773438 217.414062 97.640625 C 217.980469 99.511719 218.457031 101.402344 218.835938 103.316406 C 219.21875 105.234375 219.503906 107.164062 219.695312 109.105469 C 219.886719 111.050781 219.980469 112.996094 219.980469 114.949219 Z M 219.980469 114.949219 " fill-opacity="1" fill-rule="nonzero"/></g><g clip-path="url(#id4)"><path fill="#6851ff" d="M 160.292969 60.070312 C 130.054688 60.070312 105.542969 84.582031 105.542969 114.820312 C 105.542969 145.058594 130.054688 169.570312 160.292969 169.570312 C 190.53125 169.570312 215.042969 145.058594 215.042969 114.820312 C 215.042969 84.582031 190.53125 60.070312 160.292969 60.070312 " fill-opacity="1" fill-rule="nonzero"/></g><g fill="#000000" fill-opacity="1"><g transform="translate(224.951942, 160.66571)"><g><path d="M 60.546875 -14.828125 C 71.359375 -14.828125 80.1875 -18.40625 87.03125 -25.5625 C 93.882812 -32.71875 97.3125 -42.140625 97.3125 -53.828125 C 97.3125 -65.515625 93.882812 -74.910156 87.03125 -82.015625 C 80.1875 -89.128906 71.359375 -92.6875 60.546875 -92.6875 C 49.734375 -92.6875 40.898438 -89.128906 34.046875 -82.015625 C 27.203125 -74.910156 23.78125 -65.515625 23.78125 -53.828125 C 23.78125 -42.140625 27.203125 -32.71875 34.046875 -25.5625 C 40.898438 -18.40625 49.734375 -14.828125 60.546875 -14.828125 Z M 60.625 1.078125 C 45.226562 1.078125 32.226562 -4.09375 21.625 -14.4375 C 11.019531 -24.789062 5.71875 -37.921875 5.71875 -53.828125 C 5.71875 -69.742188 11.019531 -82.875 21.625 -93.21875 C 32.226562 -103.570312 45.226562 -108.75 60.625 -108.75 C 76.019531 -108.75 88.992188 -103.570312 99.546875 -93.21875 C 110.109375 -82.875 115.390625 -69.742188 115.390625 -53.828125 C 115.390625 -37.921875 110.109375 -24.789062 99.546875 -14.4375 C 88.992188 -4.09375 76.019531 1.078125 60.625 1.078125 Z M 60.625 1.078125 "/></g></g></g><g fill="#000000" fill-opacity="1"><g transform="translate(346.051896, 160.66571)"><g><path d="M 71.0625 -85.109375 L 88.671875 -85.109375 L 88.671875 0 L 71.0625 0 L 71.0625 -13.4375 C 65.5 -3.65625 56.4375 1.234375 43.875 1.234375 C 34.289062 1.234375 26.382812 -1.929688 20.15625 -8.265625 C 13.925781 -14.597656 10.8125 -23.476562 10.8125 -34.90625 L 10.8125 -85.109375 L 28.265625 -85.109375 L 28.265625 -37.53125 C 28.265625 -29.914062 30.171875 -24.070312 33.984375 -20 C 37.796875 -15.9375 42.992188 -13.90625 49.578125 -13.90625 C 56.171875 -13.90625 61.398438 -15.9375 65.265625 -20 C 69.128906 -24.070312 71.0625 -29.914062 71.0625 -37.53125 Z M 71.0625 -85.109375 "/></g></g></g><g fill="#000000" fill-opacity="1"><g transform="translate(446.299186, 160.66571)"><g><path d="M 7.71875 -60.703125 C 7.71875 -67.910156 10.753906 -74.007812 16.828125 -79 C 22.910156 -84 30.894531 -86.5 40.78125 -86.5 C 50.664062 -86.5 58.515625 -84.050781 64.328125 -79.15625 C 70.148438 -74.269531 73.269531 -67.601562 73.6875 -59.15625 L 55.609375 -59.15625 C 55.296875 -63.382812 53.828125 -66.679688 51.203125 -69.046875 C 48.578125 -71.410156 44.894531 -72.59375 40.15625 -72.59375 C 35.425781 -72.59375 31.722656 -71.535156 29.046875 -69.421875 C 26.367188 -67.316406 25.03125 -64.539062 25.03125 -61.09375 C 25.03125 -57.644531 26.726562 -54.941406 30.125 -52.984375 C 33.519531 -51.023438 37.660156 -49.582031 42.546875 -48.65625 C 47.441406 -47.726562 52.332031 -46.59375 57.21875 -45.25 C 62.113281 -43.914062 66.257812 -41.472656 69.65625 -37.921875 C 73.0625 -34.367188 74.765625 -29.609375 74.765625 -23.640625 C 74.765625 -16.222656 71.648438 -10.195312 65.421875 -5.5625 C 59.191406 -0.925781 51.179688 1.390625 41.390625 1.390625 C 31.609375 1.390625 23.679688 -0.976562 17.609375 -5.71875 C 11.535156 -10.457031 8.1875 -17.203125 7.5625 -25.953125 L 25.796875 -25.953125 C 26.109375 -21.734375 27.648438 -18.4375 30.421875 -16.0625 C 33.203125 -13.695312 36.988281 -12.515625 41.78125 -12.515625 C 46.570312 -12.515625 50.382812 -13.566406 53.21875 -15.671875 C 56.050781 -17.785156 57.46875 -20.59375 57.46875 -24.09375 C 57.46875 -27.59375 55.765625 -30.320312 52.359375 -32.28125 C 48.960938 -34.238281 44.816406 -35.707031 39.921875 -36.6875 C 35.035156 -37.664062 30.144531 -38.796875 25.25 -40.078125 C 20.363281 -41.367188 16.21875 -43.710938 12.8125 -47.109375 C 9.414062 -50.503906 7.71875 -55.035156 7.71875 -60.703125 Z M 7.71875 -60.703125 "/></g></g></g><g fill="#000000" fill-opacity="1"><g transform="translate(528.783108, 160.66571)"><g><path d="M 52.828125 -70.75 L 32.125 -70.75 L 32.125 -23.640625 C 32.125 -20.441406 32.867188 -18.144531 34.359375 -16.75 C 35.859375 -15.363281 38.410156 -14.671875 42.015625 -14.671875 L 52.828125 -14.671875 L 52.828125 0 L 38.921875 0 C 22.546875 0 14.359375 -7.878906 14.359375 -23.640625 L 14.359375 -70.75 L 4.328125 -70.75 L 4.328125 -85.109375 L 14.359375 -85.109375 L 14.359375 -106.28125 L 32.125 -106.28125 L 32.125 -85.109375 L 52.828125 -85.109375 Z M 52.828125 -70.75 "/></g></g></g><g fill="#000000" fill-opacity="1"><g transform="translate(586.243788, 160.66571)"><g><path d="M 29.1875 -85.109375 L 29.1875 -70.28125 C 34.644531 -81.09375 43.144531 -86.5 54.6875 -86.5 L 54.6875 -68.28125 L 50.203125 -68.28125 C 43.304688 -68.28125 38.078125 -66.523438 34.515625 -63.015625 C 30.960938 -59.515625 29.1875 -53.441406 29.1875 -44.796875 L 29.1875 0 L 11.578125 0 L 11.578125 -85.109375 Z M 29.1875 -85.109375 "/></g></g></g><g fill="#000000" fill-opacity="1"><g transform="translate(645.558052, 160.66571)"><g><path d="M 66.875 -21.15625 C 72.03125 -26.3125 74.609375 -33.46875 74.609375 -42.625 C 74.609375 -51.789062 72.109375 -58.921875 67.109375 -64.015625 C 62.117188 -69.117188 56.070312 -71.671875 48.96875 -71.671875 C 41.863281 -71.671875 35.890625 -69.117188 31.046875 -64.015625 C 26.203125 -58.921875 23.78125 -51.765625 23.78125 -42.546875 C 23.78125 -33.335938 26.148438 -26.179688 30.890625 -21.078125 C 35.628906 -15.984375 41.523438 -13.4375 48.578125 -13.4375 C 55.628906 -13.4375 61.726562 -16.007812 66.875 -21.15625 Z M 48.578125 1.390625 C 36.171875 1.390625 25.953125 -2.648438 17.921875 -10.734375 C 9.890625 -18.816406 5.875 -29.421875 5.875 -42.546875 C 5.875 -55.679688 10.015625 -66.289062 18.296875 -74.375 C 26.585938 -82.457031 36.910156 -86.5 49.265625 -86.5 C 61.628906 -86.5 71.957031 -82.457031 80.25 -74.375 C 88.539062 -66.289062 92.6875 -55.707031 92.6875 -42.625 C 92.6875 -29.550781 88.4375 -18.945312 79.9375 -10.8125 C 71.4375 -2.675781 60.984375 1.390625 48.578125 1.390625 Z M 48.578125 1.390625 "/></g></g></g></svg>