<svg xmlns="http://www.w3.org/2000/svg" xmlns:xlink="http://www.w3.org/1999/xlink" width="375" viewBox="0 0 375 187.5" height="187.5" version="1.0"><defs><g id="b"><path d="M 42.421875 -50.8125 L 52.9375 -50.8125 L 52.9375 0 L 42.421875 0 L 42.421875 -8.015625 C 39.097656 -2.179688 33.6875 0.734375 26.1875 0.734375 C 20.46875 0.734375 15.75 -1.15625 12.03125 -4.9375 C 8.3125 -8.71875 6.453125 -14.019531 6.453125 -20.84375 L 6.453125 -50.8125 L 16.875 -50.8125 L 16.875 -22.40625 C 16.875 -17.851562 18.007812 -14.363281 20.28125 -11.9375 C 22.5625 -9.507812 25.664062 -8.296875 29.59375 -8.296875 C 33.53125 -8.296875 36.648438 -9.507812 38.953125 -11.9375 C 41.265625 -14.363281 42.421875 -17.851562 42.421875 -22.40625 Z M 42.421875 -50.8125"/></g><g id="c"><path d="M 4.609375 -36.234375 C 4.609375 -40.546875 6.421875 -44.191406 10.046875 -47.171875 C 13.679688 -50.148438 18.445312 -51.640625 24.34375 -51.640625 C 30.25 -51.640625 34.9375 -50.175781 38.40625 -47.25 C 41.882812 -44.332031 43.742188 -40.351562 43.984375 -35.3125 L 33.203125 -35.3125 C 33.015625 -37.832031 32.132812 -39.800781 30.5625 -41.21875 C 29 -42.632812 26.800781 -43.34375 23.96875 -43.34375 C 21.144531 -43.34375 18.929688 -42.710938 17.328125 -41.453125 C 15.734375 -40.191406 14.9375 -38.53125 14.9375 -36.46875 C 14.9375 -34.414062 15.953125 -32.800781 17.984375 -31.625 C 20.015625 -30.457031 22.488281 -29.597656 25.40625 -29.046875 C 28.320312 -28.492188 31.238281 -27.816406 34.15625 -27.015625 C 37.082031 -26.222656 39.5625 -24.765625 41.59375 -22.640625 C 43.625 -20.515625 44.640625 -17.671875 44.640625 -14.109375 C 44.640625 -9.679688 42.773438 -6.082031 39.046875 -3.3125 C 35.328125 -0.550781 30.546875 0.828125 24.703125 0.828125 C 18.867188 0.828125 14.140625 -0.582031 10.515625 -3.40625 C 6.890625 -6.238281 4.890625 -10.269531 4.515625 -15.5 L 15.40625 -15.5 C 15.582031 -12.976562 16.5 -11.007812 18.15625 -9.59375 C 19.820312 -8.175781 22.082031 -7.46875 24.9375 -7.46875 C 27.800781 -7.46875 30.078125 -8.097656 31.765625 -9.359375 C 33.460938 -10.617188 34.3125 -12.289062 34.3125 -14.375 C 34.3125 -16.46875 33.296875 -18.097656 31.265625 -19.265625 C 29.234375 -20.441406 26.753906 -21.320312 23.828125 -21.90625 C 20.910156 -22.488281 17.992188 -23.160156 15.078125 -23.921875 C 12.160156 -24.691406 9.6875 -26.09375 7.65625 -28.125 C 5.625 -30.15625 4.609375 -32.859375 4.609375 -36.234375 Z M 4.609375 -36.234375"/></g><g id="d"><path d="M 31.53125 -42.234375 L 19.1875 -42.234375 L 19.1875 -14.109375 C 19.1875 -12.203125 19.628906 -10.832031 20.515625 -10 C 21.410156 -9.175781 22.929688 -8.765625 25.078125 -8.765625 L 31.53125 -8.765625 L 31.53125 0 L 23.234375 0 C 13.460938 0 8.578125 -4.703125 8.578125 -14.109375 L 8.578125 -42.234375 L 2.578125 -42.234375 L 2.578125 -50.8125 L 8.578125 -50.8125 L 8.578125 -63.453125 L 19.1875 -63.453125 L 19.1875 -50.8125 L 31.53125 -50.8125 Z M 31.53125 -42.234375"/></g><g id="e"><path d="M 17.421875 -50.8125 L 17.421875 -41.953125 C 20.679688 -48.410156 25.753906 -51.640625 32.640625 -51.640625 L 32.640625 -40.765625 L 29.96875 -40.765625 C 25.851562 -40.765625 22.734375 -39.71875 20.609375 -37.625 C 18.484375 -35.53125 17.421875 -31.90625 17.421875 -26.75 L 17.421875 0 L 6.921875 0 L 6.921875 -50.8125 Z M 17.421875 -50.8125"/></g><g id="f"><path d="M 39.921875 -12.625 C 43.003906 -15.707031 44.546875 -19.984375 44.546875 -25.453125 C 44.546875 -30.921875 43.050781 -35.175781 40.0625 -38.21875 C 37.082031 -41.269531 33.472656 -42.796875 29.234375 -42.796875 C 24.992188 -42.796875 21.425781 -41.269531 18.53125 -38.21875 C 15.644531 -35.175781 14.203125 -30.90625 14.203125 -25.40625 C 14.203125 -19.90625 15.613281 -15.628906 18.4375 -12.578125 C 21.269531 -9.535156 24.789062 -8.015625 29 -8.015625 C 33.207031 -8.015625 36.847656 -9.550781 39.921875 -12.625 Z M 29 0.828125 C 21.59375 0.828125 15.488281 -1.582031 10.6875 -6.40625 C 5.894531 -11.226562 3.5 -17.5625 3.5 -25.40625 C 3.5 -33.25 5.972656 -39.582031 10.921875 -44.40625 C 15.867188 -49.226562 22.03125 -51.640625 29.40625 -51.640625 C 36.789062 -51.640625 42.957031 -49.226562 47.90625 -44.40625 C 52.851562 -39.582031 55.328125 -33.265625 55.328125 -25.453125 C 55.328125 -17.640625 52.789062 -11.304688 47.71875 -6.453125 C 42.644531 -1.597656 36.40625 0.828125 29 0.828125 Z M 29 0.828125"/></g></defs><g fill="#F6F3E4"><use x="27.174" y="120.281" xmlns:xlink="http://www.w3.org/1999/xlink" xlink:href="#a" xlink:type="simple" xlink:actuate="onLoad" xlink:show="embed"/></g><g fill="#F6F3E4"><use x="54.84" y="120.281" xmlns:xlink="http://www.w3.org/1999/xlink" xlink:href="#a" xlink:type="simple" xlink:actuate="onLoad" xlink:show="embed"/></g><g fill="#F6F3E4"><use x="82.506" y="120.281" xmlns:xlink="http://www.w3.org/1999/xlink" xlink:href="#a" xlink:type="simple" xlink:actuate="onLoad" xlink:show="embed"/></g><g><use x="110.168" y="120.281" xmlns:xlink="http://www.w3.org/1999/xlink" xlink:href="#b" xlink:type="simple" xlink:actuate="onLoad" xlink:show="embed"/></g><g><use x="170.019" y="120.281" xmlns:xlink="http://www.w3.org/1999/xlink" xlink:href="#c" xlink:type="simple" xlink:actuate="onLoad" xlink:show="embed"/></g><g><use x="219.264" y="120.281" xmlns:xlink="http://www.w3.org/1999/xlink" xlink:href="#d" xlink:type="simple" xlink:actuate="onLoad" xlink:show="embed"/></g><g><use x="253.569" y="120.281" xmlns:xlink="http://www.w3.org/1999/xlink" xlink:href="#e" xlink:type="simple" xlink:actuate="onLoad" xlink:show="embed"/></g><g><use x="288.981" y="120.281" xmlns:xlink="http://www.w3.org/1999/xlink" xlink:href="#f" xlink:type="simple" xlink:actuate="onLoad" xlink:show="embed"/></g><path fill="#6851FF" d="M 70.425781 49.097656 C 50.59375 49.097656 34.519531 65.171875 34.519531 85.003906 C 34.519531 104.832031 50.59375 120.90625 70.425781 120.90625 C 90.253906 120.90625 106.328125 104.832031 106.328125 85.003906 C 106.328125 65.171875 90.253906 49.097656 70.425781 49.097656 Z M 70.425781 49.097656"/></svg>