<svg xmlns="http://www.w3.org/2000/svg" xmlns:xlink="http://www.w3.org/1999/xlink" width="1000" zoomAndPan="magnify" viewBox="0 0 750 225" height="300" preserveAspectRatio="xMidYMid meet" version="1.0"><defs><g/><clipPath id="id1"><path d="M 0 61.941406 L 151.5 61.941406 L 151.5 213.441406 L 0 213.441406 Z M 0 61.941406 " clip-rule="nonzero"/></clipPath><clipPath id="id2"><path d="M 4.875 66.816406 L 146.625 66.816406 L 146.625 208.566406 L 4.875 208.566406 Z M 4.875 66.816406 " clip-rule="nonzero"/></clipPath><clipPath id="id3"><path d="M 100.730469 94.765625 L 219.980469 94.765625 L 219.980469 214.015625 L 100.730469 214.015625 Z M 100.730469 94.765625 " clip-rule="nonzero"/></clipPath><clipPath id="id4"><path d="M 105.542969 99.511719 L 215.042969 99.511719 L 215.042969 209.011719 L 105.542969 209.011719 Z M 105.542969 99.511719 " clip-rule="nonzero"/></clipPath></defs><g clip-path="url(#id1)"><path fill="#ffffff" d="M 151.5 137.691406 C 151.5 138.933594 151.46875 140.171875 151.410156 141.410156 C 151.347656 142.648438 151.257812 143.882812 151.136719 145.117188 C 151.015625 146.351562 150.863281 147.582031 150.679688 148.808594 C 150.5 150.03125 150.285156 151.253906 150.042969 152.46875 C 149.800781 153.6875 149.53125 154.894531 149.230469 156.097656 C 148.929688 157.300781 148.597656 158.496094 148.238281 159.679688 C 147.878906 160.867188 147.488281 162.042969 147.070312 163.210938 C 146.652344 164.378906 146.207031 165.535156 145.734375 166.679688 C 145.257812 167.824219 144.757812 168.957031 144.226562 170.078125 C 143.695312 171.199219 143.140625 172.308594 142.554688 173.398438 C 141.972656 174.492188 141.359375 175.570312 140.722656 176.636719 C 140.085938 177.699219 139.421875 178.746094 138.734375 179.777344 C 138.046875 180.808594 137.332031 181.820312 136.59375 182.816406 C 135.855469 183.8125 135.09375 184.789062 134.304688 185.746094 C 133.519531 186.707031 132.710938 187.644531 131.878906 188.5625 C 131.042969 189.480469 130.191406 190.378906 129.3125 191.253906 C 128.4375 192.132812 127.539062 192.988281 126.621094 193.820312 C 125.703125 194.652344 124.761719 195.460938 123.804688 196.246094 C 122.847656 197.035156 121.871094 197.796875 120.875 198.535156 C 119.878906 199.273438 118.863281 199.988281 117.835938 200.675781 C 116.804688 201.363281 115.757812 202.027344 114.691406 202.664062 C 113.628906 203.300781 112.550781 203.914062 111.457031 204.496094 C 110.363281 205.082031 109.257812 205.640625 108.136719 206.167969 C 107.015625 206.699219 105.882812 207.203125 104.738281 207.675781 C 103.59375 208.148438 102.4375 208.597656 101.269531 209.015625 C 100.101562 209.429688 98.925781 209.820312 97.738281 210.179688 C 96.550781 210.539062 95.359375 210.871094 94.15625 211.171875 C 92.953125 211.472656 91.742188 211.746094 90.527344 211.988281 C 89.3125 212.226562 88.089844 212.441406 86.863281 212.621094 C 85.636719 212.804688 84.410156 212.957031 83.175781 213.078125 C 81.941406 213.199219 80.707031 213.289062 79.46875 213.351562 C 78.230469 213.410156 76.988281 213.441406 75.75 213.441406 C 74.511719 213.441406 73.269531 213.410156 72.03125 213.351562 C 70.792969 213.289062 69.558594 213.199219 68.324219 213.078125 C 67.089844 212.957031 65.863281 212.804688 64.636719 212.621094 C 63.410156 212.441406 62.1875 212.226562 60.972656 211.988281 C 59.757812 211.746094 58.546875 211.472656 57.34375 211.171875 C 56.140625 210.871094 54.945312 210.539062 53.761719 210.179688 C 52.574219 209.820312 51.398438 209.429688 50.230469 209.015625 C 49.0625 208.597656 47.90625 208.148438 46.761719 207.675781 C 45.617188 207.203125 44.484375 206.699219 43.363281 206.167969 C 42.242188 205.640625 41.136719 205.082031 40.042969 204.496094 C 38.949219 203.914062 37.871094 203.300781 36.808594 202.664062 C 35.742188 202.027344 34.695312 201.363281 33.664062 200.675781 C 32.636719 199.988281 31.621094 199.273438 30.625 198.535156 C 29.628906 197.796875 28.652344 197.035156 27.695312 196.246094 C 26.738281 195.460938 25.796875 194.652344 24.878906 193.820312 C 23.960938 192.988281 23.0625 192.132812 22.1875 191.253906 C 21.308594 190.378906 20.457031 189.480469 19.621094 188.5625 C 18.789062 187.644531 17.980469 186.707031 17.195312 185.746094 C 16.40625 184.789062 15.644531 183.8125 14.90625 182.816406 C 14.167969 181.820312 13.453125 180.808594 12.765625 179.777344 C 12.078125 178.746094 11.414062 177.699219 10.777344 176.636719 C 10.140625 175.570312 9.527344 174.492188 8.945312 173.398438 C 8.359375 172.308594 7.804688 171.199219 7.273438 170.078125 C 6.742188 168.957031 6.242188 167.824219 5.765625 166.679688 C 5.292969 165.535156 4.84375 164.378906 4.429688 163.210938 C 4.011719 162.042969 3.621094 160.867188 3.261719 159.679688 C 2.902344 158.496094 2.570312 157.300781 2.269531 156.097656 C 1.96875 154.894531 1.699219 153.6875 1.457031 152.46875 C 1.214844 151.253906 1 150.03125 0.820312 148.808594 C 0.636719 147.582031 0.484375 146.351562 0.363281 145.117188 C 0.242188 143.882812 0.152344 142.648438 0.0898438 141.410156 C 0.03125 140.171875 0 138.933594 0 137.691406 C 0 136.453125 0.03125 135.214844 0.0898438 133.976562 C 0.152344 132.738281 0.242188 131.5 0.363281 130.265625 C 0.484375 129.035156 0.636719 127.804688 0.820312 126.578125 C 1 125.351562 1.214844 124.128906 1.457031 122.914062 C 1.699219 121.699219 1.96875 120.488281 2.269531 119.285156 C 2.570312 118.082031 2.902344 116.890625 3.261719 115.703125 C 3.621094 114.515625 4.011719 113.339844 4.429688 112.171875 C 4.84375 111.003906 5.292969 109.847656 5.765625 108.703125 C 6.242188 107.558594 6.742188 106.425781 7.273438 105.304688 C 7.804688 104.183594 8.359375 103.078125 8.945312 101.984375 C 9.527344 100.890625 10.140625 99.8125 10.777344 98.75 C 11.414062 97.683594 12.078125 96.636719 12.765625 95.609375 C 13.453125 94.578125 14.167969 93.5625 14.90625 92.566406 C 15.644531 91.570312 16.40625 90.59375 17.195312 89.636719 C 17.980469 88.679688 18.789062 87.738281 19.621094 86.820312 C 20.457031 85.902344 21.308594 85.003906 22.1875 84.128906 C 23.0625 83.253906 23.960938 82.398438 24.878906 81.566406 C 25.796875 80.730469 26.738281 79.921875 27.695312 79.136719 C 28.652344 78.351562 29.628906 77.585938 30.625 76.847656 C 31.621094 76.109375 32.636719 75.398438 33.664062 74.707031 C 34.695312 74.019531 35.742188 73.355469 36.808594 72.71875 C 37.871094 72.082031 38.949219 71.472656 40.042969 70.886719 C 41.136719 70.300781 42.242188 69.746094 43.363281 69.214844 C 44.484375 68.683594 45.617188 68.183594 46.761719 67.707031 C 47.90625 67.234375 49.0625 66.789062 50.230469 66.371094 C 51.398438 65.953125 52.574219 65.5625 53.761719 65.203125 C 54.945312 64.84375 56.140625 64.511719 57.34375 64.210938 C 58.546875 63.910156 59.757812 63.640625 60.972656 63.398438 C 62.1875 63.15625 63.410156 62.945312 64.636719 62.761719 C 65.863281 62.578125 67.089844 62.429688 68.324219 62.308594 C 69.558594 62.183594 70.792969 62.09375 72.03125 62.035156 C 73.269531 61.972656 74.511719 61.941406 75.75 61.941406 C 76.988281 61.941406 78.230469 61.972656 79.46875 62.035156 C 80.707031 62.09375 81.941406 62.183594 83.175781 62.308594 C 84.410156 62.429688 85.636719 62.578125 86.863281 62.761719 C 88.089844 62.945312 89.3125 63.15625 90.527344 63.398438 C 91.742188 63.640625 92.953125 63.910156 94.15625 64.210938 C 95.359375 64.511719 96.550781 64.84375 97.738281 65.203125 C 98.925781 65.5625 100.101562 65.953125 101.269531 66.371094 C 102.4375 66.789062 103.59375 67.234375 104.738281 67.707031 C 105.882812 68.183594 107.015625 68.683594 108.136719 69.214844 C 109.257812 69.746094 110.363281 70.300781 111.457031 70.886719 C 112.550781 71.472656 113.628906 72.082031 114.691406 72.71875 C 115.757812 73.355469 116.804688 74.019531 117.835938 74.707031 C 118.863281 75.398438 119.878906 76.109375 120.875 76.847656 C 121.871094 77.585938 122.847656 78.351562 123.804688 79.136719 C 124.761719 79.921875 125.703125 80.730469 126.621094 81.566406 C 127.539062 82.398438 128.4375 83.253906 129.3125 84.128906 C 130.191406 85.003906 131.042969 85.902344 131.878906 86.820312 C 132.710938 87.738281 133.519531 88.679688 134.304688 89.636719 C 135.09375 90.59375 135.855469 91.570312 136.59375 92.566406 C 137.332031 93.5625 138.046875 94.578125 138.734375 95.609375 C 139.421875 96.636719 140.085938 97.683594 140.722656 98.75 C 141.359375 99.8125 141.972656 100.890625 142.554688 101.984375 C 143.140625 103.078125 143.695312 104.183594 144.226562 105.304688 C 144.757812 106.425781 145.257812 107.558594 145.734375 108.703125 C 146.207031 109.847656 146.652344 111.003906 147.070312 112.171875 C 147.488281 113.339844 147.878906 114.515625 148.238281 115.703125 C 148.597656 116.890625 148.929688 118.082031 149.230469 119.285156 C 149.53125 120.488281 149.800781 121.699219 150.042969 122.914062 C 150.285156 124.128906 150.5 125.351562 150.679688 126.578125 C 150.863281 127.804688 151.015625 129.035156 151.136719 130.265625 C 151.257812 131.5 151.347656 132.738281 151.410156 133.976562 C 151.46875 135.214844 151.5 136.453125 151.5 137.691406 Z M 151.5 137.691406 " fill-opacity="1" fill-rule="nonzero"/></g><g clip-path="url(#id2)"><path fill="#6851ff" d="M 75.75 66.816406 C 36.609375 66.816406 4.875 98.550781 4.875 137.691406 C 4.875 176.835938 36.609375 208.566406 75.75 208.566406 C 114.894531 208.566406 146.625 176.835938 146.625 137.691406 C 146.625 98.550781 114.894531 66.816406 75.75 66.816406 " fill-opacity="1" fill-rule="nonzero"/></g><g clip-path="url(#id3)"><path fill="#ffffff" d="M 219.980469 154.390625 C 219.980469 156.34375 219.886719 158.292969 219.695312 160.234375 C 219.503906 162.179688 219.21875 164.109375 218.835938 166.023438 C 218.457031 167.941406 217.980469 169.832031 217.414062 171.699219 C 216.847656 173.570312 216.191406 175.40625 215.445312 177.210938 C 214.695312 179.011719 213.863281 180.777344 212.941406 182.5 C 212.019531 184.222656 211.019531 185.894531 209.933594 187.519531 C 208.847656 189.140625 207.6875 190.707031 206.449219 192.21875 C 205.210938 193.726562 203.898438 195.171875 202.519531 196.554688 C 201.136719 197.933594 199.691406 199.242188 198.183594 200.484375 C 196.671875 201.722656 195.105469 202.882812 193.484375 203.96875 C 191.859375 205.054688 190.1875 206.054688 188.464844 206.976562 C 186.742188 207.898438 184.980469 208.730469 183.175781 209.476562 C 181.371094 210.226562 179.535156 210.882812 177.664062 211.449219 C 175.796875 212.015625 173.90625 212.492188 171.988281 212.871094 C 170.074219 213.253906 168.144531 213.539062 166.203125 213.730469 C 164.257812 213.921875 162.308594 214.015625 160.355469 214.015625 C 158.40625 214.015625 156.457031 213.921875 154.511719 213.730469 C 152.570312 213.539062 150.640625 213.253906 148.726562 212.871094 C 146.808594 212.492188 144.917969 212.015625 143.050781 211.449219 C 141.179688 210.882812 139.34375 210.226562 137.539062 209.476562 C 135.734375 208.730469 133.972656 207.898438 132.25 206.976562 C 130.527344 206.054688 128.855469 205.054688 127.230469 203.96875 C 125.609375 202.882812 124.042969 201.722656 122.53125 200.484375 C 121.023438 199.242188 119.578125 197.933594 118.195312 196.554688 C 116.816406 195.171875 115.503906 193.726562 114.265625 192.21875 C 113.027344 190.707031 111.867188 189.140625 110.78125 187.519531 C 109.695312 185.894531 108.695312 184.222656 107.773438 182.5 C 106.851562 180.777344 106.019531 179.011719 105.269531 177.210938 C 104.523438 175.40625 103.867188 173.570312 103.300781 171.699219 C 102.734375 169.832031 102.257812 167.9375 101.878906 166.023438 C 101.496094 164.109375 101.210938 162.179688 101.019531 160.234375 C 100.828125 158.292969 100.730469 156.34375 100.730469 154.390625 C 100.730469 152.4375 100.828125 150.492188 101.019531 148.546875 C 101.210938 146.605469 101.496094 144.675781 101.878906 142.757812 C 102.257812 140.84375 102.734375 138.953125 103.300781 137.082031 C 103.867188 135.214844 104.523438 133.378906 105.269531 131.574219 C 106.019531 129.769531 106.851562 128.007812 107.773438 126.285156 C 108.695312 124.5625 109.695312 122.890625 110.78125 121.265625 C 111.867188 119.640625 113.027344 118.074219 114.265625 116.566406 C 115.503906 115.058594 116.816406 113.613281 118.195312 112.230469 C 119.578125 110.851562 121.023438 109.539062 122.53125 108.300781 C 124.042969 107.0625 125.609375 105.902344 127.230469 104.816406 C 128.855469 103.730469 130.527344 102.726562 132.25 101.808594 C 133.972656 100.886719 135.734375 100.054688 137.539062 99.304688 C 139.34375 98.558594 141.179688 97.902344 143.050781 97.335938 C 144.917969 96.765625 146.808594 96.292969 148.726562 95.914062 C 150.640625 95.53125 152.570312 95.246094 154.511719 95.054688 C 156.457031 94.863281 158.40625 94.765625 160.355469 94.765625 C 162.308594 94.765625 164.257812 94.863281 166.203125 95.054688 C 168.144531 95.246094 170.074219 95.53125 171.988281 95.914062 C 173.90625 96.292969 175.796875 96.765625 177.664062 97.335938 C 179.535156 97.902344 181.371094 98.558594 183.175781 99.304688 C 184.980469 100.054688 186.742188 100.886719 188.464844 101.808594 C 190.1875 102.726562 191.859375 103.730469 193.484375 104.816406 C 195.105469 105.902344 196.671875 107.0625 198.183594 108.300781 C 199.691406 109.539062 201.136719 110.851562 202.519531 112.230469 C 203.898438 113.613281 205.210938 115.058594 206.449219 116.566406 C 207.6875 118.074219 208.847656 119.640625 209.933594 121.265625 C 211.019531 122.890625 212.019531 124.5625 212.941406 126.285156 C 213.863281 128.007812 214.695312 129.769531 215.445312 131.574219 C 216.191406 133.378906 216.847656 135.214844 217.414062 137.082031 C 217.980469 138.953125 218.457031 140.84375 218.835938 142.757812 C 219.21875 144.675781 219.503906 146.605469 219.695312 148.546875 C 219.886719 150.492188 219.980469 152.4375 219.980469 154.390625 Z M 219.980469 154.390625 " fill-opacity="1" fill-rule="nonzero"/></g><g clip-path="url(#id4)"><path fill="#6851ff" d="M 160.292969 99.511719 C 130.054688 99.511719 105.542969 124.023438 105.542969 154.261719 C 105.542969 184.5 130.054688 209.011719 160.292969 209.011719 C 190.53125 209.011719 215.042969 184.5 215.042969 154.261719 C 215.042969 124.023438 190.53125 99.511719 160.292969 99.511719 " fill-opacity="1" fill-rule="nonzero"/></g><g fill="#000000" fill-opacity="1"><g transform="translate(224.951942, 200.107673)"><g><path d="M 60.546875 -14.828125 C 71.359375 -14.828125 80.1875 -18.40625 87.03125 -25.5625 C 93.882812 -32.71875 97.3125 -42.140625 97.3125 -53.828125 C 97.3125 -65.515625 93.882812 -74.910156 87.03125 -82.015625 C 80.1875 -89.128906 71.359375 -92.6875 60.546875 -92.6875 C 49.734375 -92.6875 40.898438 -89.128906 34.046875 -82.015625 C 27.203125 -74.910156 23.78125 -65.515625 23.78125 -53.828125 C 23.78125 -42.140625 27.203125 -32.71875 34.046875 -25.5625 C 40.898438 -18.40625 49.734375 -14.828125 60.546875 -14.828125 Z M 60.625 1.078125 C 45.226562 1.078125 32.226562 -4.09375 21.625 -14.4375 C 11.019531 -24.789062 5.71875 -37.921875 5.71875 -53.828125 C 5.71875 -69.742188 11.019531 -82.875 21.625 -93.21875 C 32.226562 -103.570312 45.226562 -108.75 60.625 -108.75 C 76.019531 -108.75 88.992188 -103.570312 99.546875 -93.21875 C 110.109375 -82.875 115.390625 -69.742188 115.390625 -53.828125 C 115.390625 -37.921875 110.109375 -24.789062 99.546875 -14.4375 C 88.992188 -4.09375 76.019531 1.078125 60.625 1.078125 Z M 60.625 1.078125 "/></g></g></g><g fill="#000000" fill-opacity="1"><g transform="translate(346.051896, 200.107673)"><g><path d="M 71.0625 -85.109375 L 88.671875 -85.109375 L 88.671875 0 L 71.0625 0 L 71.0625 -13.4375 C 65.5 -3.65625 56.4375 1.234375 43.875 1.234375 C 34.289062 1.234375 26.382812 -1.929688 20.15625 -8.265625 C 13.925781 -14.597656 10.8125 -23.476562 10.8125 -34.90625 L 10.8125 -85.109375 L 28.265625 -85.109375 L 28.265625 -37.53125 C 28.265625 -29.914062 30.171875 -24.070312 33.984375 -20 C 37.796875 -15.9375 42.992188 -13.90625 49.578125 -13.90625 C 56.171875 -13.90625 61.398438 -15.9375 65.265625 -20 C 69.128906 -24.070312 71.0625 -29.914062 71.0625 -37.53125 Z M 71.0625 -85.109375 "/></g></g></g><g fill="#000000" fill-opacity="1"><g transform="translate(446.299186, 200.107673)"><g><path d="M 7.71875 -60.703125 C 7.71875 -67.910156 10.753906 -74.007812 16.828125 -79 C 22.910156 -84 30.894531 -86.5 40.78125 -86.5 C 50.664062 -86.5 58.515625 -84.050781 64.328125 -79.15625 C 70.148438 -74.269531 73.269531 -67.601562 73.6875 -59.15625 L 55.609375 -59.15625 C 55.296875 -63.382812 53.828125 -66.679688 51.203125 -69.046875 C 48.578125 -71.410156 44.894531 -72.59375 40.15625 -72.59375 C 35.425781 -72.59375 31.722656 -71.535156 29.046875 -69.421875 C 26.367188 -67.316406 25.03125 -64.539062 25.03125 -61.09375 C 25.03125 -57.644531 26.726562 -54.941406 30.125 -52.984375 C 33.519531 -51.023438 37.660156 -49.582031 42.546875 -48.65625 C 47.441406 -47.726562 52.332031 -46.59375 57.21875 -45.25 C 62.113281 -43.914062 66.257812 -41.472656 69.65625 -37.921875 C 73.0625 -34.367188 74.765625 -29.609375 74.765625 -23.640625 C 74.765625 -16.222656 71.648438 -10.195312 65.421875 -5.5625 C 59.191406 -0.925781 51.179688 1.390625 41.390625 1.390625 C 31.609375 1.390625 23.679688 -0.976562 17.609375 -5.71875 C 11.535156 -10.457031 8.1875 -17.203125 7.5625 -25.953125 L 25.796875 -25.953125 C 26.109375 -21.734375 27.648438 -18.4375 30.421875 -16.0625 C 33.203125 -13.695312 36.988281 -12.515625 41.78125 -12.515625 C 46.570312 -12.515625 50.382812 -13.566406 53.21875 -15.671875 C 56.050781 -17.785156 57.46875 -20.59375 57.46875 -24.09375 C 57.46875 -27.59375 55.765625 -30.320312 52.359375 -32.28125 C 48.960938 -34.238281 44.816406 -35.707031 39.921875 -36.6875 C 35.035156 -37.664062 30.144531 -38.796875 25.25 -40.078125 C 20.363281 -41.367188 16.21875 -43.710938 12.8125 -47.109375 C 9.414062 -50.503906 7.71875 -55.035156 7.71875 -60.703125 Z M 7.71875 -60.703125 "/></g></g></g><g fill="#000000" fill-opacity="1"><g transform="translate(528.783108, 200.107673)"><g><path d="M 52.828125 -70.75 L 32.125 -70.75 L 32.125 -23.640625 C 32.125 -20.441406 32.867188 -18.144531 34.359375 -16.75 C 35.859375 -15.363281 38.410156 -14.671875 42.015625 -14.671875 L 52.828125 -14.671875 L 52.828125 0 L 38.921875 0 C 22.546875 0 14.359375 -7.878906 14.359375 -23.640625 L 14.359375 -70.75 L 4.328125 -70.75 L 4.328125 -85.109375 L 14.359375 -85.109375 L 14.359375 -106.28125 L 32.125 -106.28125 L 32.125 -85.109375 L 52.828125 -85.109375 Z M 52.828125 -70.75 "/></g></g></g><g fill="#000000" fill-opacity="1"><g transform="translate(586.243788, 200.107673)"><g><path d="M 29.1875 -85.109375 L 29.1875 -70.28125 C 34.644531 -81.09375 43.144531 -86.5 54.6875 -86.5 L 54.6875 -68.28125 L 50.203125 -68.28125 C 43.304688 -68.28125 38.078125 -66.523438 34.515625 -63.015625 C 30.960938 -59.515625 29.1875 -53.441406 29.1875 -44.796875 L 29.1875 0 L 11.578125 0 L 11.578125 -85.109375 Z M 29.1875 -85.109375 "/></g></g></g><g fill="#000000" fill-opacity="1"><g transform="translate(645.558052, 200.107673)"><g><path d="M 66.875 -21.15625 C 72.03125 -26.3125 74.609375 -33.46875 74.609375 -42.625 C 74.609375 -51.789062 72.109375 -58.921875 67.109375 -64.015625 C 62.117188 -69.117188 56.070312 -71.671875 48.96875 -71.671875 C 41.863281 -71.671875 35.890625 -69.117188 31.046875 -64.015625 C 26.203125 -58.921875 23.78125 -51.765625 23.78125 -42.546875 C 23.78125 -33.335938 26.148438 -26.179688 30.890625 -21.078125 C 35.628906 -15.984375 41.523438 -13.4375 48.578125 -13.4375 C 55.628906 -13.4375 61.726562 -16.007812 66.875 -21.15625 Z M 48.578125 1.390625 C 36.171875 1.390625 25.953125 -2.648438 17.921875 -10.734375 C 9.890625 -18.816406 5.875 -29.421875 5.875 -42.546875 C 5.875 -55.679688 10.015625 -66.289062 18.296875 -74.375 C 26.585938 -82.457031 36.910156 -86.5 49.265625 -86.5 C 61.628906 -86.5 71.957031 -82.457031 80.25 -74.375 C 88.539062 -66.289062 92.6875 -55.707031 92.6875 -42.625 C 92.6875 -29.550781 88.4375 -18.945312 79.9375 -10.8125 C 71.4375 -2.675781 60.984375 1.390625 48.578125 1.390625 Z M 48.578125 1.390625 "/></g></g></g><g fill="#6851ff" fill-opacity="1"><g transform="translate(574.780344, 67.068272)"><g><path d="M 5.203125 -48.1875 L 23.578125 -48.1875 C 28.523438 -48.1875 32.359375 -46.984375 35.078125 -44.578125 C 37.804688 -42.179688 39.171875 -39.132812 39.171875 -35.4375 C 39.171875 -30.03125 36.050781 -26.46875 29.8125 -24.75 C 32.957031 -24.25 35.488281 -22.851562 37.40625 -20.5625 C 39.320312 -18.269531 40.28125 -15.644531 40.28125 -12.6875 C 40.28125 -8.988281 38.847656 -5.945312 35.984375 -3.5625 C 33.117188 -1.1875 29.285156 0 24.484375 0 L 5.203125 0 Z M 13.109375 -42.015625 L 13.109375 -27.734375 L 22.890625 -27.734375 C 25.472656 -27.734375 27.492188 -28.359375 28.953125 -29.609375 C 30.410156 -30.859375 31.140625 -32.601562 31.140625 -34.84375 C 31.140625 -37.082031 30.410156 -38.835938 28.953125 -40.109375 C 27.492188 -41.378906 25.472656 -42.015625 22.890625 -42.015625 Z M 13.109375 -6.171875 L 23.78125 -6.171875 C 26.46875 -6.171875 28.570312 -6.835938 30.09375 -8.171875 C 31.625 -9.515625 32.390625 -11.378906 32.390625 -13.765625 C 32.390625 -16.148438 31.578125 -18.046875 29.953125 -19.453125 C 28.335938 -20.859375 26.1875 -21.5625 23.5 -21.5625 L 13.109375 -21.5625 Z M 13.109375 -6.171875 "/></g></g></g><g fill="#6851ff" fill-opacity="1"><g transform="translate(618.457062, 67.068272)"><g><path d="M 31.828125 -48.265625 L 31.828125 -42.09375 L 13.109375 -42.09375 L 13.109375 -27.453125 L 29.75 -27.453125 L 29.75 -21.359375 L 13.109375 -21.359375 L 13.109375 -6.171875 L 31.828125 -6.171875 L 31.828125 0 L 5.203125 0 L 5.203125 -48.265625 Z M 31.828125 -48.265625 "/></g></g></g><g fill="#6851ff" fill-opacity="1"><g transform="translate(654.785002, 67.068272)"><g><path d="M 2.703125 -42.015625 L 2.703125 -48.1875 L 36.34375 -48.1875 L 36.34375 -42.015625 L 23.5 -42.015625 L 23.5 0 L 15.609375 0 L 15.609375 -42.015625 Z M 2.703125 -42.015625 "/></g></g></g><g fill="#6851ff" fill-opacity="1"><g transform="translate(693.886063, 67.068272)"><g><path d="M 37.71875 0 L 34.25 -9.84375 L 14.078125 -9.84375 L 10.609375 0 L 2.359375 0 L 19.625 -48.265625 L 28.78125 -48.265625 L 46.046875 0 Z M 16.21875 -16.015625 L 32.109375 -16.015625 L 24.203125 -38.6875 Z M 16.21875 -16.015625 "/></g></g></g></svg>