<?xml version="1.0" standalone="no"?>
<!DOCTYPE svg PUBLIC "-//W3C//DTD SVG 20010904//EN"
 "http://www.w3.org/TR/2001/REC-SVG-20010904/DTD/svg10.dtd">
<svg version="1.0" xmlns="http://www.w3.org/2000/svg"
 width="512.000000pt" height="512.000000pt" viewBox="0 0 512.000000 512.000000"
 preserveAspectRatio="xMidYMid meet">

<g transform="translate(0.000000,512.000000) scale(0.100000,-0.100000)"
fill="#000000" stroke="none">
<path d="M1515 4421 c-22 -10 -256 -143 -520 -295 -318 -184 -492 -290 -517
-315 -20 -21 -42 -57 -48 -80 -7 -28 -10 -225 -8 -633 3 -584 3 -594 24 -633
12 -22 30 -47 40 -56 17 -15 944 -553 1021 -593 44 -22 134 -21 181 3 20 10
424 243 897 517 l860 498 66 4 c52 3 74 0 105 -16 93 -47 581 -335 603 -355
13 -12 32 -40 42 -62 17 -37 19 -71 19 -401 l0 -360 -25 -51 c-15 -30 -41 -61
-63 -76 -59 -39 -559 -327 -597 -343 -85 -35 -108 -26 -495 199 -222 129 -270
161 -295 196 l-30 43 -3 196 c-3 210 -9 232 -55 232 -11 0 -91 -41 -178 -92
-126 -73 -162 -98 -174 -124 -12 -25 -15 -72 -15 -216 0 -100 5 -200 11 -222
20 -74 63 -103 573 -397 269 -155 504 -288 522 -295 42 -18 96 -18 138 0 18 7
253 140 522 295 325 188 501 295 526 320 20 21 42 57 48 80 7 28 10 225 8 633
-3 584 -3 594 -24 633 -12 22 -30 47 -40 57 -18 15 -936 548 -1016 589 -49 25
-137 25 -186 0 -20 -10 -424 -243 -897 -517 l-860 -498 -66 -4 c-50 -3 -74 0
-100 13 -104 54 -578 332 -603 354 -64 58 -66 68 -66 467 l0 360 26 51 c30 61
22 56 389 267 284 164 322 179 393 158 43 -13 606 -334 640 -366 55 -49 62
-80 62 -278 0 -197 7 -228 52 -228 12 0 93 41 180 91 113 65 163 100 173 120
12 22 15 72 15 226 0 223 -7 252 -71 308 -35 31 -972 575 -1035 601 -46 19
-101 17 -149 -5z"/>
</g>
</svg>
