<svg xmlns="http://www.w3.org/2000/svg" xmlns:xlink="http://www.w3.org/1999/xlink" width="40" zoomAndPan="magnify" viewBox="0 0 30 30.000001" height="40" preserveAspectRatio="xMidYMid meet" version="1.0"><defs><clipPath id="id1"><path d="M 0.484375 0 L 29.515625 0 L 29.515625 29.03125 L 0.484375 29.03125 Z M 0.484375 0 " clip-rule="nonzero"/></clipPath></defs><g clip-path="url(#id1)"><path fill="#6851ff" d="M 15.296875 1.75 L 16.933594 0.136719 C 16.980469 0.0898438 17.035156 0.0585938 17.101562 0.0351562 C 17.164062 0.015625 17.230469 0.0117188 17.296875 0.0234375 C 17.363281 0.03125 17.421875 0.0585938 17.476562 0.0976562 C 17.53125 0.136719 17.574219 0.183594 17.605469 0.246094 L 18.660156 2.285156 C 18.714844 2.386719 18.796875 2.457031 18.90625 2.492188 C 19.015625 2.527344 19.125 2.519531 19.226562 2.46875 L 21.28125 1.4375 C 21.339844 1.410156 21.402344 1.394531 21.472656 1.394531 C 21.539062 1.394531 21.601562 1.410156 21.664062 1.441406 C 21.722656 1.472656 21.773438 1.511719 21.8125 1.566406 C 21.851562 1.621094 21.875 1.683594 21.886719 1.75 L 22.261719 4.015625 C 22.28125 4.128906 22.335938 4.21875 22.429688 4.289062 C 22.523438 4.355469 22.628906 4.382812 22.742188 4.363281 L 25.015625 4.019531 C 25.082031 4.011719 25.144531 4.015625 25.210938 4.035156 C 25.273438 4.058594 25.328125 4.089844 25.378906 4.140625 C 25.425781 4.1875 25.457031 4.242188 25.480469 4.304688 C 25.5 4.371094 25.507812 4.4375 25.496094 4.503906 L 25.152344 6.773438 C 25.136719 6.886719 25.160156 6.992188 25.226562 7.085938 C 25.296875 7.179688 25.386719 7.234375 25.503906 7.253906 L 27.765625 7.628906 C 27.832031 7.640625 27.894531 7.664062 27.949219 7.703125 C 28.003906 7.742188 28.046875 7.792969 28.074219 7.855469 C 28.105469 7.914062 28.121094 7.976562 28.121094 8.042969 C 28.121094 8.113281 28.105469 8.175781 28.078125 8.234375 L 27.046875 10.289062 C 26.996094 10.390625 26.988281 10.5 27.023438 10.609375 C 27.058594 10.71875 27.128906 10.800781 27.230469 10.855469 L 29.269531 11.910156 C 29.332031 11.941406 29.378906 11.984375 29.417969 12.039062 C 29.460938 12.09375 29.484375 12.152344 29.496094 12.21875 C 29.503906 12.285156 29.5 12.351562 29.480469 12.417969 C 29.460938 12.480469 29.425781 12.535156 29.378906 12.585938 L 27.765625 14.21875 C 27.683594 14.300781 27.644531 14.398438 27.644531 14.515625 C 27.644531 14.632812 27.683594 14.730469 27.765625 14.8125 L 29.378906 16.449219 C 29.425781 16.496094 29.460938 16.550781 29.480469 16.617188 C 29.5 16.679688 29.503906 16.746094 29.496094 16.8125 C 29.484375 16.878906 29.460938 16.9375 29.417969 16.992188 C 29.378906 17.046875 29.332031 17.089844 29.269531 17.121094 L 27.230469 18.179688 C 27.128906 18.230469 27.058594 18.3125 27.023438 18.421875 C 26.988281 18.535156 26.996094 18.640625 27.046875 18.742188 L 28.078125 20.796875 C 28.105469 20.855469 28.121094 20.921875 28.121094 20.988281 C 28.121094 21.054688 28.105469 21.117188 28.074219 21.179688 C 28.046875 21.238281 28.003906 21.289062 27.949219 21.328125 C 27.894531 21.367188 27.832031 21.394531 27.765625 21.402344 L 25.503906 21.777344 C 25.386719 21.796875 25.296875 21.855469 25.226562 21.949219 C 25.160156 22.042969 25.136719 22.144531 25.152344 22.261719 L 25.496094 24.53125 C 25.507812 24.597656 25.5 24.660156 25.480469 24.726562 C 25.457031 24.789062 25.425781 24.84375 25.375 24.894531 C 25.328125 24.941406 25.273438 24.976562 25.210938 24.996094 C 25.144531 25.015625 25.082031 25.023438 25.015625 25.011719 L 22.742188 24.667969 C 22.628906 24.652344 22.523438 24.675781 22.429688 24.746094 C 22.335938 24.8125 22.28125 24.902344 22.261719 25.019531 L 21.886719 27.285156 C 21.878906 27.351562 21.851562 27.410156 21.8125 27.464844 C 21.773438 27.519531 21.722656 27.5625 21.664062 27.59375 C 21.601562 27.621094 21.539062 27.636719 21.472656 27.636719 C 21.402344 27.636719 21.339844 27.625 21.28125 27.59375 L 19.226562 26.566406 C 19.125 26.511719 19.015625 26.503906 18.90625 26.539062 C 18.796875 26.574219 18.714844 26.644531 18.660156 26.75 L 17.605469 28.785156 C 17.574219 28.847656 17.53125 28.894531 17.476562 28.9375 C 17.421875 28.976562 17.363281 29 17.296875 29.011719 C 17.230469 29.019531 17.164062 29.015625 17.101562 28.996094 C 17.035156 28.976562 16.980469 28.941406 16.933594 28.894531 L 15.296875 27.28125 C 15.214844 27.199219 15.117188 27.160156 15 27.160156 C 14.882812 27.160156 14.785156 27.199219 14.703125 27.28125 L 13.066406 28.894531 C 13.019531 28.941406 12.964844 28.976562 12.898438 28.996094 C 12.835938 29.015625 12.769531 29.019531 12.703125 29.011719 C 12.636719 29 12.578125 28.976562 12.523438 28.9375 C 12.46875 28.894531 12.425781 28.847656 12.394531 28.785156 L 11.339844 26.75 C 11.285156 26.644531 11.203125 26.578125 11.09375 26.539062 C 10.980469 26.503906 10.875 26.511719 10.773438 26.566406 L 8.71875 27.59375 C 8.660156 27.625 8.59375 27.640625 8.527344 27.636719 C 8.460938 27.636719 8.398438 27.621094 8.335938 27.59375 C 8.277344 27.5625 8.226562 27.519531 8.1875 27.464844 C 8.148438 27.410156 8.121094 27.351562 8.113281 27.285156 L 7.738281 25.019531 C 7.71875 24.90625 7.660156 24.8125 7.566406 24.746094 C 7.472656 24.675781 7.371094 24.652344 7.253906 24.667969 L 4.984375 25.011719 C 4.917969 25.023438 4.855469 25.015625 4.789062 24.996094 C 4.726562 24.976562 4.671875 24.941406 4.621094 24.894531 C 4.574219 24.847656 4.539062 24.789062 4.519531 24.726562 C 4.5 24.664062 4.492188 24.597656 4.503906 24.53125 L 4.847656 22.261719 C 4.863281 22.144531 4.839844 22.042969 4.769531 21.949219 C 4.703125 21.855469 4.613281 21.796875 4.496094 21.777344 L 2.230469 21.40625 C 2.164062 21.394531 2.105469 21.367188 2.050781 21.328125 C 1.996094 21.289062 1.953125 21.238281 1.925781 21.179688 C 1.894531 21.117188 1.878906 21.054688 1.878906 20.988281 C 1.878906 20.921875 1.890625 20.855469 1.921875 20.796875 L 2.953125 18.746094 C 3.003906 18.640625 3.011719 18.535156 2.976562 18.421875 C 2.941406 18.3125 2.871094 18.230469 2.765625 18.179688 L 0.730469 17.121094 C 0.667969 17.089844 0.621094 17.046875 0.578125 16.992188 C 0.539062 16.9375 0.515625 16.878906 0.503906 16.8125 C 0.496094 16.746094 0.5 16.679688 0.519531 16.617188 C 0.539062 16.550781 0.574219 16.496094 0.621094 16.449219 L 2.234375 14.8125 C 2.316406 14.730469 2.355469 14.632812 2.355469 14.515625 C 2.355469 14.402344 2.316406 14.300781 2.234375 14.21875 L 0.621094 12.585938 C 0.574219 12.535156 0.539062 12.480469 0.519531 12.417969 C 0.5 12.351562 0.496094 12.289062 0.503906 12.21875 C 0.515625 12.152344 0.539062 12.09375 0.578125 12.039062 C 0.621094 11.984375 0.667969 11.941406 0.730469 11.910156 L 2.765625 10.855469 C 2.871094 10.800781 2.941406 10.71875 2.976562 10.609375 C 3.011719 10.5 3.003906 10.390625 2.953125 10.289062 L 1.921875 8.234375 C 1.890625 8.175781 1.878906 8.113281 1.878906 8.042969 C 1.878906 7.976562 1.894531 7.914062 1.925781 7.855469 C 1.953125 7.792969 1.996094 7.742188 2.050781 7.703125 C 2.105469 7.664062 2.164062 7.640625 2.230469 7.628906 L 4.496094 7.253906 C 4.613281 7.234375 4.703125 7.179688 4.769531 7.085938 C 4.839844 6.992188 4.863281 6.886719 4.847656 6.773438 L 4.503906 4.503906 C 4.492188 4.4375 4.5 4.371094 4.519531 4.304688 C 4.539062 4.242188 4.574219 4.1875 4.621094 4.140625 C 4.671875 4.089844 4.726562 4.058594 4.789062 4.035156 C 4.855469 4.015625 4.917969 4.011719 4.984375 4.019531 L 7.253906 4.363281 C 7.371094 4.382812 7.472656 4.355469 7.566406 4.289062 C 7.660156 4.21875 7.71875 4.128906 7.738281 4.015625 L 8.113281 1.75 C 8.121094 1.683594 8.148438 1.621094 8.1875 1.566406 C 8.226562 1.511719 8.277344 1.472656 8.335938 1.441406 C 8.398438 1.410156 8.460938 1.394531 8.527344 1.394531 C 8.59375 1.394531 8.660156 1.410156 8.71875 1.4375 L 10.773438 2.46875 C 10.875 2.519531 10.980469 2.527344 11.09375 2.492188 C 11.203125 2.457031 11.285156 2.386719 11.335938 2.285156 L 12.394531 0.246094 C 12.425781 0.183594 12.46875 0.136719 12.523438 0.0976562 C 12.578125 0.0585938 12.636719 0.03125 12.703125 0.0234375 C 12.769531 0.0117188 12.835938 0.015625 12.898438 0.0351562 C 12.964844 0.0585938 13.019531 0.0898438 13.066406 0.136719 L 14.703125 1.75 C 14.785156 1.832031 14.882812 1.875 15 1.875 C 15.117188 1.875 15.214844 1.832031 15.296875 1.75 Z M 15.296875 1.75 " fill-opacity="1" fill-rule="nonzero"/></g><path fill="#ffffff" d="M 20.414062 9.910156 C 19.898438 9.453125 19.105469 9.503906 18.648438 10.015625 L 13.050781 16.335938 L 11.265625 14.550781 C 10.824219 14.113281 10.105469 14.113281 9.664062 14.550781 L 9.496094 14.722656 C 9.058594 15.160156 9.058594 15.878906 9.496094 16.320312 L 12.285156 19.109375 C 12.703125 19.527344 13.367188 19.542969 13.8125 19.167969 C 13.90625 19.105469 14 19.035156 14.078125 18.949219 L 20.519531 11.675781 C 20.976562 11.160156 20.925781 10.367188 20.414062 9.910156 Z M 20.414062 9.910156 " fill-opacity="1" fill-rule="nonzero"/></svg>